<?xml version="1.0" standalone="no"?>
<!DOCTYPE svg PUBLIC "-//W3C//DTD SVG 20010904//EN"
 "http://www.w3.org/TR/2001/REC-SVG-20010904/DTD/svg10.dtd">
<svg version="1.0" xmlns="http://www.w3.org/2000/svg"
 width="512.000000pt" height="512.000000pt" viewBox="0 0 512.000000 512.000000"
 preserveAspectRatio="xMidYMid meet">
<metadata>
Created by potrace 1.11, written by Peter Selinger 2001-2013
</metadata>
<g transform="translate(0.000000,512.000000) scale(0.100000,-0.100000)"
fill="#000000" stroke="none">
<path d="M2252 5110 c-315 -43 -618 -135 -872 -268 -161 -84 -200 -129 -200
-233 0 -48 6 -65 44 -125 66 -104 766 -1321 766 -1332 0 -5 16 -26 35 -46 68
-72 17 -69 931 -68 922 0 861 -5 929 75 80 93 49 244 -60 301 -39 21 -50 21
-788 22 -411 1 -749 3 -751 5 -9 9 -626 1084 -626 1090 0 10 87 45 218 89 119
40 314 83 432 97 134 15 484 7 584 -13 12 -2 37 -7 56 -9 19 -3 46 -8 60 -12
14 -3 30 -7 35 -8 73 -17 242 -69 290 -89 126 -54 190 -84 255 -119 372 -200
684 -516 879 -887 99 -190 165 -373 205 -572 38 -186 45 -262 41 -478 -4 -220
-6 -236 -36 -380 -42 -204 -107 -386 -209 -586 -80 -158 -84 -218 -19 -297 58
-71 168 -92 248 -46 122 68 338 595 386 942 3 27 8 59 11 70 24 117 23 578 -2
682 -2 11 -6 34 -8 50 -12 83 -29 162 -60 277 -102 371 -276 700 -522 987
-362 422 -836 708 -1379 832 -113 26 -109 25 -175 34 -30 5 -64 10 -75 12 -43
9 -563 10 -623 3z"/>
<path d="M433 3921 c-24 -12 -55 -37 -73 -63 -35 -47 -124 -219 -165 -319 -27
-65 -100 -279 -110 -321 -3 -13 -14 -63 -26 -113 -41 -179 -56 -344 -53 -575
1 -118 5 -231 9 -250 3 -19 12 -80 21 -135 135 -873 745 -1631 1580 -1963 198
-79 418 -137 604 -158 30 -3 78 -10 105 -14 55 -9 470 -5 525 4 19 4 67 11
105 17 259 38 545 131 785 255 161 84 200 130 200 237 0 45 -10 66 -122 257
-47 80 -155 267 -240 415 -86 149 -222 384 -302 523 -80 139 -146 256 -146
259 0 18 -57 76 -93 95 l-42 22 -820 0 c-609 0 -829 -3 -855 -12 -164 -56
-177 -285 -20 -368 33 -17 76 -18 782 -19 411 0 749 -3 752 -6 5 -5 136 -229
201 -344 13 -22 114 -197 224 -389 111 -192 200 -354 198 -360 -13 -32 -384
-148 -542 -171 -65 -9 -116 -15 -160 -20 -57 -7 -338 -7 -375 -1 -14 2 -52 7
-85 10 -55 6 -76 9 -137 20 -463 86 -928 353 -1231 707 -69 82 -157 197 -157
208 0 5 -3 11 -8 13 -17 7 -127 205 -172 309 -18 41 -38 88 -45 104 -40 92
-101 317 -119 440 -23 160 -27 209 -28 338 0 111 6 221 16 287 3 14 8 45 11
70 11 67 13 76 35 164 49 191 89 296 186 490 52 103 65 138 66 176 1 145 -147
241 -279 181z"/>
<path d="M1634 2741 c-155 -71 -161 -280 -10 -356 l50 -25 885 0 c843 0 888 1
927 19 71 32 113 90 118 164 6 85 -40 162 -118 198 -39 18 -84 19 -926 19
-842 0 -887 -1 -926 -19z"/>
</g>
</svg>
