<?xml version="1.0" encoding="UTF-8"?>
<svg width="1658px" height="808px" viewBox="0 0 1658 808" version="1.1" xmlns="http://www.w3.org/2000/svg" xmlns:xlink="http://www.w3.org/1999/xlink">
    <!-- Generator: Sketch 49 (51002) - http://www.bohemiancoding.com/sketch -->
    <title>Artboard 9</title>
    <desc>Created with Sketch.</desc>
    <defs>
        <polygon id="path-1" points="0.180104412 0.755 490.791586 0.755 490.791586 491.0808 0.180104412 491.0808"></polygon>
        <polygon id="path-3" points="0 0.665351175 490.606343 0.665351175 490.606343 490.9998 0 490.9998"></polygon>
    </defs>
    <g id="Artboard-9" stroke="none" stroke-width="1" fill="none" fill-rule="evenodd">
        <g id="Group" transform="translate(52.000000, 77.000000)">
            <path d="M424.5031,344.2828 L213.2891,344.2828 C199.6671,344.2828 188.6281,333.2388 188.6281,319.6168 C188.6281,305.9958 199.6671,294.9568 213.2891,294.9568 L424.5031,294.9568 C438.1241,294.9568 449.1681,305.9958 449.1681,319.6168 C449.1681,333.2388 438.1221,344.2828 424.5031,344.2828" id="Fill-4" fill="#00A7D2"></path>
            <path d="M465.9402,260.9117 L270.7652,260.9117 C257.1472,260.9117 246.1052,249.8697 246.1052,236.2537 C246.1052,222.6327 257.1472,211.5937 270.7652,211.5937 L465.9402,211.5917 C479.5592,211.5917 490.6062,222.6327 490.6062,236.2537 C490.6062,249.8697 479.5592,260.9117 465.9402,260.9117" id="Fill-6" fill="#00A7D2"></path>
            <path d="M270.7883,260.922 C262.2683,260.922 253.9803,256.5 249.4113,248.589 L150.4613,77.216 C143.6533,65.419 147.6973,50.338 159.4873,43.522 C171.2803,36.737 186.3663,40.764 193.1803,52.551 L292.1293,223.924 C298.9373,235.719 294.8933,250.803 283.1013,257.616 C279.2183,259.855 274.9753,260.922 270.7883,260.922" id="Fill-8" fill="#00A7D2"></path>
            <path d="M367.0266,427.6481 L171.8486,427.6481 C158.2276,427.6481 147.1866,416.6021 147.1866,402.9831 C147.1866,389.3641 158.2276,378.3181 171.8486,378.3181 L367.0266,378.3181 C380.6476,378.3181 391.6916,389.3641 391.6916,402.9831 C391.6916,416.6021 380.6476,427.6481 367.0266,427.6481" id="Fill-10" fill="#101425"></path>
            <path d="M465.9895,599.0153 C457.4615,599.0153 449.1775,594.5993 444.6075,586.6803 L345.6675,415.3103 C338.8625,403.5173 342.8985,388.4373 354.6985,381.6203 C366.5175,374.8083 381.5805,378.8523 388.3855,390.6563 L487.3255,562.0233 C494.1315,573.8163 490.0945,588.8993 478.2935,595.7123 C474.4115,597.9563 470.1705,599.0153 465.9895,599.0153" id="Fill-12" fill="#101425"></path>
            <g id="Group-3" transform="translate(147.000000, 0.245000)">
                <mask id="mask-2" fill="white">
                    <use xlink:href="#path-1"></use>
                </mask>
                <g id="Clip-2"></g>
                <path d="M426.5637,491.0808 C422.3817,491.0808 418.1437,490.0188 414.2587,487.7748 C402.4587,480.9618 398.4247,465.8808 405.2277,454.0888 C441.2207,391.7588 450.7767,319.1608 432.1447,249.6378 C413.5207,180.1238 368.9317,122.0198 306.6127,86.0398 C223.5027,38.0628 120.2657,38.0708 37.1787,86.0398 C25.3837,92.8448 10.3057,88.8058 3.4897,77.0128 C-3.3233,65.2148 0.7207,50.1318 12.5137,43.3208 C61.6677,14.9448 116.7817,0.7548 171.8947,0.7548 C227.0077,0.7548 282.1177,14.9448 331.2707,43.3208 C405.0077,85.8948 457.7517,154.6318 479.7917,236.8738 C501.8297,319.1198 490.5227,405.0168 447.9457,478.7458 C443.3767,486.6638 435.0837,491.0808 426.5637,491.0808" id="Fill-1" fill="#00A7D2" mask="url(#mask-2)"></path>
            </g>
            <g id="Group-16" transform="translate(0.000000, 147.245000)">
                <mask id="mask-4" fill="white">
                    <use xlink:href="#path-3"></use>
                </mask>
                <g id="Clip-15"></g>
                <path d="M318.8996,490.9998 C263.7816,490.9998 208.6736,476.8108 159.5136,448.4258 C85.7816,405.8498 33.0366,337.1118 11.0006,254.8698 C-11.0404,172.6278 0.2726,86.7288 42.8426,12.9968 C49.6646,1.2068 64.7476,-2.8382 76.5356,3.9748 C88.3286,10.7828 92.3726,25.8638 85.5646,37.6588 C49.5766,99.9858 40.0146,172.5948 58.6416,242.1088 C77.2686,311.6258 121.8526,369.7248 184.1786,405.7048 C267.2786,453.6918 370.5036,453.6918 453.6126,405.7128 C465.4236,398.8988 480.4936,402.9438 487.2996,414.7448 C494.1056,426.5368 490.0706,441.6178 478.2706,448.4318 C429.1176,476.8008 374.0026,490.9998 318.8996,490.9998" id="Fill-14" fill="#101425" mask="url(#mask-4)"></path>
            </g>
            <path d="M847.1018,223.6388 L1015.7028,223.6388 C1022.3018,223.6388 1025.6018,227.5388 1025.6018,235.3388 C1025.6018,242.9418 1022.3018,246.7388 1015.7028,246.7388 L847.1018,246.7388 L847.1018,282.9168 C847.1018,299.3978 862.5988,307.6388 893.6018,307.6388 L1015.7028,307.6388 C1022.7008,307.6388 1026.2028,311.2898 1026.2028,318.5938 C1026.2028,326.2898 1022.7008,330.1388 1015.7028,330.1388 L892.7028,330.1388 C843.0988,330.1388 818.3018,314.7408 818.3018,283.9388 L818.3018,185.8388 C818.3018,154.4418 843.9988,138.7388 895.4018,138.7388 L928.7028,138.7388 C935.3018,138.7388 938.6018,142.5398 938.6018,150.1388 C938.6018,157.5398 935.3018,161.2388 928.7028,161.2388 L906.2028,161.2388 C866.7988,161.2388 847.1018,169.4418 847.1018,185.8388 L847.1018,223.6388 Z" id="Fill-17" fill="#00A7D2"></path>
            <path d="M1288.4016,312.4386 C1288.4016,318.8416 1286.6476,323.6416 1283.1516,326.8386 C1279.6496,330.0396 1275.5996,331.6386 1271.0016,331.6386 C1268.9996,331.6386 1266.8476,331.2346 1264.5506,330.4386 C1262.2496,329.6416 1259.9996,328.1416 1257.8006,325.9386 L1088.6006,174.7386 L1088.6006,319.3386 C1088.6006,327.5416 1083.8996,331.6386 1074.5016,331.6386 C1065.2996,331.6386 1060.7016,327.5416 1060.7016,319.3386 L1060.7016,155.2386 C1060.7016,149.2386 1062.5016,144.8886 1066.1006,142.1886 C1069.7016,139.4886 1073.6996,138.1386 1078.1006,138.1386 C1080.8996,138.1386 1083.5016,138.4906 1085.9016,139.1886 C1088.3006,139.8916 1090.5976,141.3406 1092.8006,143.5386 L1260.5016,291.7386 L1260.5016,148.9386 C1260.5016,141.1386 1265.3006,137.2386 1274.9016,137.2386 C1283.9016,137.2386 1288.4016,141.1386 1288.4016,148.9386 L1288.4016,312.4386 Z" id="Fill-19" fill="#00A7D2"></path>
            <path d="M1523.5969,186.4904 C1523.5969,169.6574 1505.5969,161.2394 1469.5969,161.2394 L1405.9959,161.2394 C1370.7929,161.2394 1353.1969,169.6574 1353.1969,186.4904 L1353.1969,281.1824 C1353.1969,298.8214 1370.7929,307.6384 1405.9959,307.6384 L1482.1969,307.6384 C1509.7969,307.6384 1523.5969,298.9254 1523.5969,281.4874 L1523.5969,186.4904 Z M1552.3969,280.3864 C1552.3969,301.9954 1540.8789,316.7984 1517.8499,324.7994 L1532.2969,332.8804 C1533.8949,333.8794 1535.2449,335.4264 1536.3469,337.5264 C1537.4439,339.6164 1537.9959,341.4634 1537.9959,343.0624 C1537.9959,346.4554 1536.6939,349.2494 1534.0969,351.4484 C1531.4949,353.6374 1528.4949,354.7394 1525.0969,354.7394 C1523.0949,354.7394 1520.7929,354.0354 1518.1969,352.6384 L1478.2969,329.2394 L1397.8969,329.2394 C1348.8939,329.2394 1324.3969,312.9404 1324.3969,280.3394 L1324.3969,187.0384 C1324.3969,154.8404 1348.8279,138.7394 1397.6959,138.7394 L1477.5979,138.7394 C1527.4639,138.7394 1552.3969,154.7464 1552.3969,186.7534 L1552.3969,280.3864 Z" id="Fill-21" fill="#00A7D2"></path>
            <path d="M830.1428,462.1832 L898.1448,462.1832 C900.8068,462.1832 902.1368,463.7562 902.1368,466.9032 C902.1368,469.9692 900.8068,471.5002 898.1448,471.5002 L830.1428,471.5002 L830.1428,486.0922 C830.1428,492.7402 836.3928,496.0632 848.8988,496.0632 L898.1448,496.0632 C900.9668,496.0632 902.3788,497.5372 902.3788,500.4822 C902.3788,503.5862 900.9668,505.1382 898.1448,505.1382 L848.5358,505.1382 C828.5278,505.1382 818.5278,498.9272 818.5278,486.5042 L818.5278,446.9372 C818.5278,434.2742 828.8908,427.9402 849.6228,427.9402 L863.0548,427.9402 C865.7168,427.9402 867.0468,429.4742 867.0468,432.5382 C867.0468,435.5242 865.7168,437.0152 863.0548,437.0152 L853.9808,437.0152 C838.0878,437.0152 830.1428,440.3242 830.1428,446.9372 L830.1428,462.1832 Z" id="Fill-23" fill="#101425"></path>
            <path d="M1008.1331,497.9997 C1008.1331,500.5817 1007.4261,502.5187 1006.0161,503.8077 C1004.6041,505.0997 1002.9711,505.7437 1001.1151,505.7437 C1000.3091,505.7437 999.4401,505.5807 998.5141,505.2597 C997.5861,504.9377 996.6781,504.3337 995.7911,503.4447 L927.5471,442.4607 L927.5471,500.7827 C927.5471,504.0917 925.6511,505.7437 921.8601,505.7437 C918.1491,505.7437 916.2951,504.0917 916.2951,500.7827 L916.2951,434.5957 C916.2951,432.1757 917.0201,430.4217 918.4731,429.3317 C919.9241,428.2427 921.5371,427.6987 923.3131,427.6987 C924.4421,427.6987 925.4901,427.8407 926.4591,428.1217 C927.4261,428.4057 928.3541,428.9897 929.2421,429.8767 L996.8811,489.6507 L996.8811,432.0547 C996.8811,428.9087 998.8171,427.3357 1002.6881,427.3357 C1006.3191,427.3357 1008.1331,428.9087 1008.1331,432.0547 L1008.1331,497.9997 Z" id="Fill-25" fill="#101425"></path>
            <path d="M1034.2678,462.1832 L1102.2698,462.1832 C1104.9318,462.1832 1106.2618,463.7562 1106.2618,466.9032 C1106.2618,469.9692 1104.9318,471.5002 1102.2698,471.5002 L1034.2678,471.5002 L1034.2678,486.0922 C1034.2678,492.7402 1040.5178,496.0632 1053.0238,496.0632 L1102.2698,496.0632 C1105.0918,496.0632 1106.5038,497.5372 1106.5038,500.4822 C1106.5038,503.5862 1105.0918,505.1382 1102.2698,505.1382 L1052.6608,505.1382 C1032.6528,505.1382 1022.6528,498.9272 1022.6528,486.5042 L1022.6528,446.9372 C1022.6528,434.2742 1033.0158,427.9402 1053.7478,427.9402 L1067.1798,427.9402 C1069.8418,427.9402 1071.1718,429.4742 1071.1718,432.5382 C1071.1718,435.5242 1069.8418,437.0152 1067.1798,437.0152 L1058.1058,437.0152 C1042.2128,437.0152 1034.2678,440.3242 1034.2678,446.9372 L1034.2678,462.1832 Z" id="Fill-27" fill="#101425"></path>
            <path d="M1150.0647,437.0153 C1137.1567,437.0153 1130.7057,440.0483 1130.7057,446.1093 L1130.7057,485.5163 C1130.7057,492.5483 1137.8007,496.0633 1152.0007,496.0633 L1194.3497,496.0633 C1197.1737,496.0633 1198.5857,497.5363 1198.5857,500.4823 C1198.5857,503.5863 1197.1737,505.1383 1194.3497,505.1383 L1150.4277,505.1383 C1129.6957,505.1383 1119.3307,498.6863 1119.3307,485.7793 L1119.3307,446.0903 C1119.3307,433.9913 1129.4537,427.9403 1149.7017,427.9403 L1194.3497,427.9403 C1197.1737,427.9403 1198.5857,429.4343 1198.5857,432.4173 C1198.5857,435.4843 1197.1737,437.0153 1194.3497,437.0153 L1150.0647,437.0153 Z" id="Fill-29" fill="#101425"></path>
            <path d="M1303.1292,483.8424 C1303.1292,498.0414 1290.4242,505.1384 1265.0142,505.1384 L1247.7112,505.1384 C1223.7522,505.1384 1211.7742,498.0414 1211.7742,483.8424 L1211.7742,432.0544 C1211.7742,428.9084 1213.6472,427.3354 1217.3992,427.3354 C1221.3912,427.3354 1223.3892,428.9124 1223.3892,432.0624 L1223.3892,483.0934 C1223.3892,491.7414 1230.9572,496.0634 1246.0982,496.0634 L1266.9922,496.0634 C1283.5002,496.0634 1291.7542,491.7414 1291.7542,483.0934 L1291.7542,432.0624 C1291.7542,428.9124 1293.6492,427.3354 1297.4422,427.3354 C1301.2332,427.3354 1303.1292,428.9084 1303.1292,432.0544 L1303.1292,483.8424 Z" id="Fill-31" fill="#101425"></path>
            <path d="M1409.0042,483.8424 C1409.0042,498.0414 1396.2992,505.1384 1370.8892,505.1384 L1353.5862,505.1384 C1329.6272,505.1384 1317.6492,498.0414 1317.6492,483.8424 L1317.6492,432.0544 C1317.6492,428.9084 1319.5222,427.3354 1323.2742,427.3354 C1327.2662,427.3354 1329.2642,428.9124 1329.2642,432.0624 L1329.2642,483.0934 C1329.2642,491.7414 1336.8322,496.0634 1351.9732,496.0634 L1372.8672,496.0634 C1389.3752,496.0634 1397.6292,491.7414 1397.6292,483.0934 L1397.6292,432.0624 C1397.6292,428.9124 1399.5242,427.3354 1403.3172,427.3354 C1407.1082,427.3354 1409.0042,428.9084 1409.0042,432.0544 L1409.0042,483.8424 Z" id="Fill-33" fill="#101425"></path>
            <path d="M1549.6057,500.7829 C1549.6057,504.0919 1547.6267,505.7439 1543.6757,505.7439 C1540.0467,505.7439 1538.2307,504.0919 1538.2307,500.7829 L1538.2307,444.5169 L1495.0357,501.6299 C1493.0177,504.3729 1490.4357,505.7439 1487.2917,505.7439 C1483.9027,505.7439 1481.1997,504.3729 1479.1837,501.6299 L1435.2597,444.6379 L1435.2597,500.7829 C1435.2597,504.0919 1433.4047,505.7439 1429.6937,505.7439 C1425.9027,505.7439 1424.0077,504.0919 1424.0077,500.7829 L1424.0077,433.8699 C1424.0077,429.5129 1426.1447,427.3359 1430.4197,427.3359 C1433.4047,427.3359 1435.9457,428.6669 1438.0427,431.3289 L1487.4127,494.3699 L1535.8107,430.7229 C1537.5847,428.4669 1539.9257,427.3359 1542.8307,427.3359 C1547.3457,427.3359 1549.6057,429.5949 1549.6057,434.1119 L1549.6057,500.7829 Z" id="Fill-35" fill="#101425"></path>
        </g>
    </g>
</svg>