<svg width="31" height="30" xmlns="http://www.w3.org/2000/svg" xmlns:xlink="http://www.w3.org/1999/xlink"><use xlink:href="#path0_fill" fill="#FFF"/><use xlink:href="#path1_fill" transform="translate(8.6 6.92)" fill="#313E48"/><defs><path id="path0_fill" d="M30.35 15c0 8.284-6.794 15-15.175 15C6.795 30 0 23.284 0 15 0 6.716 6.794 0 15.175 0c8.38 0 15.175 6.716 15.175 15z"/><path id="path1_fill" d="M12.639 6.754c.263-1.765-1.079-2.714-2.913-3.347l.595-2.392L8.867.653l-.58 2.328a60.768 60.768 0 0 0-1.163-.275L7.707.363 6.255 0l-.596 2.39a48.42 48.42 0 0 1-.928-.218l.002-.007-2.004-.502-.387 1.555s1.078.248 1.055.263c.59.147.695.537.678.847l-.678 2.724c.04.01.093.025.15.048l-.153-.038-.95 3.817c-.072.179-.255.447-.666.345.014.021-1.057-.264-1.057-.264L0 12.626l1.891.473c.352.088.697.18 1.036.267l-.601 2.42 1.451.362.596-2.393c.397.108.782.207 1.158.3l-.593 2.383 1.453.363.601-2.415c2.479.47 4.342.28 5.126-1.964.632-1.808-.031-2.85-1.335-3.53.95-.22 1.665-.846 1.856-2.138zm-3.32 4.664c-.45 1.808-3.489.83-4.474.585L5.643 8.8c.986.246 4.145.734 3.675 2.619zm.449-4.69c-.41 1.644-2.94.809-3.76.604l.724-2.906c.82.205 3.462.587 3.036 2.302z"/></defs></svg>