<svg xmlns="http://www.w3.org/2000/svg" width="50" height="50" viewBox="0 0 50 50">
    <g fill="none" fill-rule="evenodd">
        <circle cx="25" cy="25" r="25" fill="#FFF"/>
        <path fill="#313E48" fill-rule="nonzero" d="M35.842 16.44c-2.596-2.073-6.702-2.424-6.878-2.437a.648.648 0 0 0-.645.38c-.01.014-.099.22-.198.538 1.717.288 3.826.867 5.734 2.042.306.187.4.586.212.89a.652.652 0 0 1-.9.21c-3.28-2.02-7.377-2.121-8.167-2.121s-4.889.1-8.167 2.12a.652.652 0 0 1-.897-.207.644.644 0 0 1 .209-.892c1.908-1.173 4.017-1.754 5.734-2.04-.1-.32-.188-.523-.196-.54a.644.644 0 0 0-.647-.38c-.176.013-4.282.364-6.914 2.464C12.749 17.73 10 25.1 10 31.471c0 .113.03.222.087.32 1.895 3.307 7.07 4.171 8.249 4.209h.02a.653.653 0 0 0 .527-.265l1.193-1.628c-3.218-.824-4.861-2.224-4.955-2.308a.641.641 0 0 1-.056-.912.656.656 0 0 1 .92-.058c.037.035 3.064 2.583 9.015 2.583 5.961 0 8.988-2.558 9.018-2.583.27-.233.68-.21.92.06a.64.64 0 0 1-.059.91c-.094.084-1.737 1.484-4.955 2.308l1.193 1.628a.653.653 0 0 0 .527.265h.02c1.18-.038 6.354-.902 8.25-4.208A.645.645 0 0 0 40 31.47c0-6.372-2.749-13.742-4.158-15.031zM20.761 28.883c-1.261 0-2.283-1.158-2.283-2.589 0-1.43 1.022-2.588 2.283-2.588 1.26 0 2.282 1.158 2.282 2.588 0 1.431-1.021 2.589-2.282 2.589zm8.478 0c-1.26 0-2.282-1.158-2.282-2.589 0-1.43 1.021-2.588 2.282-2.588 1.261 0 2.283 1.158 2.283 2.588 0 1.431-1.022 2.589-2.283 2.589z"/>
    </g>
</svg>
