<svg xmlns="http://www.w3.org/2000/svg" width="50" height="50" viewBox="0 0 50 50">
    <g fill="none" fill-rule="evenodd">
        <circle cx="25" cy="25" r="25" fill="#FFF"/>
        <g fill="#313E48" fill-rule="nonzero">
            <path d="M35.874 19.94a8.01 8.01 0 0 0 .422-2.585A7.31 7.31 0 0 0 35.5 14c-1.114 0-2.098.2-2.953.6-.854.4-1.828 1.02-2.921 1.862a18.794 18.794 0 0 0-4.375-.492c-1.688 0-3.297.18-4.828.538-1.115-.861-2.099-1.495-2.953-1.9-.854-.405-1.844-.608-2.969-.608a7.308 7.308 0 0 0-.797 3.355c0 .903.14 1.775.422 2.616C12.708 21.6 12 23.633 12 26.064c0 2.134.323 3.832.969 5.094a6.41 6.41 0 0 0 1.343 1.77 6.92 6.92 0 0 0 1.891 1.246c.709.318 1.422.582 2.14.792.72.21 1.514.365 2.384.462.87.098 1.638.162 2.304.193.667.03 1.406.046 2.219.046.958 0 1.828-.024 2.61-.07.78-.046 1.674-.159 2.679-.338 1.005-.18 1.89-.423 2.656-.73a8.485 8.485 0 0 0 2.204-1.324 6.223 6.223 0 0 0 1.648-2.047c.635-1.272.953-2.97.953-5.094 0-2.441-.709-4.483-2.126-6.124zM34 31.135c-.333.672-.755 1.2-1.266 1.585-.51.384-1.146.692-1.906.923-.76.231-1.49.382-2.187.454-.699.072-1.474.107-2.329.107h-2.625c-.854 0-1.63-.035-2.328-.107a11.638 11.638 0 0 1-2.187-.454c-.76-.23-1.396-.539-1.906-.923-.511-.385-.933-.913-1.266-1.585-.334-.673-.5-1.46-.5-2.362 0-1.232.36-2.278 1.078-3.14.719-.861 1.693-1.292 2.922-1.292.448 0 1.463.107 3.047.323.74.113 1.557.17 2.453.17.896 0 1.713-.057 2.453-.17 1.604-.216 2.62-.323 3.047-.323 1.229 0 2.203.43 2.922 1.292.718.862 1.078 1.908 1.078 3.14 0 .902-.167 1.69-.5 2.362z"/>
            <path d="M21.46 26.67c-.344-.358-.753-.537-1.227-.537-.474 0-.883.18-1.227.538a3.064 3.064 0 0 0-.728 1.2 4.25 4.25 0 0 0-.211 1.296c0 .42.07.853.211 1.295.141.443.384.843.728 1.2.344.359.753.538 1.227.538.474 0 .884-.18 1.228-.537a3.06 3.06 0 0 0 .727-1.2c.141-.443.212-.875.212-1.296 0-.421-.07-.853-.212-1.296a3.065 3.065 0 0 0-.727-1.2zM30.994 26.67c-.344-.358-.753-.537-1.227-.537-.474 0-.883.18-1.227.538a3.06 3.06 0 0 0-.728 1.2 4.246 4.246 0 0 0-.212 1.296c0 .42.07.853.212 1.295.14.443.383.843.728 1.2.344.359.753.538 1.227.538.474 0 .883-.18 1.227-.537.344-.358.587-.758.728-1.2.14-.443.211-.875.211-1.296 0-.421-.07-.853-.211-1.296a3.07 3.07 0 0 0-.728-1.2z"/>
        </g>
    </g>
</svg>
