<svg xmlns="http://www.w3.org/2000/svg" width="148" height="148" viewBox="0 0 148 148">
    <g fill="none" fill-rule="evenodd">
        <path fill="#000" fill-rule="nonzero" d="M0 89.896V36.524a3.344 3.344 0 0 1 .047-.566c.024-.145.055-.29.098-.435l.004-.009c.032-.104.069-.207.112-.31.012-.029.027-.056.04-.085a3.502 3.502 0 0 1 .24-.439l.026-.044c.083-.123.174-.239.27-.348l.055-.06a3.28 3.28 0 0 1 .283-.272c.016-.014.03-.028.047-.041a3.36 3.36 0 0 1 .352-.252l.087-.051c.113-.066.23-.127.35-.18.015-.005.027-.014.041-.02L81.067.26l.022-.008c.03-.013.063-.023.095-.035a3.331 3.331 0 0 1 1.472-.204l.027.001c.222.022.44.065.65.129.013.004.026.01.039.013.092.03.184.062.273.099l.013.005 23.178 9.724a3.349 3.349 0 0 1 0 6.176L85.71 25.024v29.518l60.236 25.273c.042.018.08.04.122.059a3.263 3.263 0 0 1 .394.216c.013.009.028.015.042.025l.01.007a3.3 3.3 0 0 1 .316.24l.03.027c.085.076.166.155.243.237l.066.075c.063.072.122.146.178.222l.062.086c.06.088.116.178.167.271l.03.05c.058.11.11.223.155.338.013.031.022.063.034.095a3.46 3.46 0 0 1 .113.38c.022.092.04.185.053.279l.014.093c.015.132.024.264.024.398v28.586a3.35 3.35 0 0 1-2.053 3.088l-78.994 33.144c-.209.09-.428.158-.656.203-.02.005-.042.006-.063.01a3.218 3.218 0 0 1-.93.04 3.24 3.24 0 0 1-.263-.04c-.021-.004-.043-.005-.064-.01a3.305 3.305 0 0 1-.655-.203L2.053 121.605A3.349 3.349 0 0 1 0 118.517V89.931v-.035zm37.426 10.691l21.145-8.872a3.349 3.349 0 0 1 2.591 6.176l-15.082 6.328 19.557 8.205L101.919 97.2l-19.556-8.205-11.895 4.99a3.348 3.348 0 1 1-2.591-6.175l11.137-4.673V61.805L12.004 89.92l25.422 10.666zm48.285-17.45l24.863 10.433 25.422-10.667-50.285-21.098v21.333zM82.363 6.98l-70.36 29.52 14.523 6.094 54.52-22.875.03-.012 15.81-6.634-14.523-6.093zM27.846 49.302a3.347 3.347 0 0 1-2.615.01L6.697 41.537v43.348l72.317-30.342V27.833L27.846 49.302zm113.457 38.637l-72.318 30.343v21.333l72.318-30.343V87.94zM6.697 116.29l55.591 23.325v-21.333L6.697 94.957v21.333z"/>
        <path fill="#D0F1F8" d="M44 104.657L83.362 88 104 97.142 64.805 113z"/>
    </g>
</svg>
