<svg xmlns="http://www.w3.org/2000/svg" width="50" height="50" viewBox="0 0 50 50">
    <g fill="none" fill-rule="evenodd">
        <circle cx="25" cy="25" r="25" fill="#FFF"/>
        <path fill="#313E48" fill-rule="nonzero" d="M31.549 12H19.45C15.342 12 12 15.343 12 19.451v12.098C12 35.658 15.342 39 19.45 39H31.55C35.658 39 39 35.657 39 31.549V19.451C39 15.343 35.658 12 31.549 12zm5.056 19.549a5.061 5.061 0 0 1-5.056 5.055H19.451a5.061 5.061 0 0 1-5.055-5.055V19.451a5.061 5.061 0 0 1 5.055-5.055h12.098a5.061 5.061 0 0 1 5.055 5.055v12.098z"/>
        <path fill="#313E48" fill-rule="nonzero" d="M25 19c-3.86 0-7 3.14-7 7s3.14 7 7 7 7-3.14 7-7-3.14-7-7-7zm0 11.59A4.595 4.595 0 0 1 20.41 26c0-2.53 2.06-4.59 4.59-4.59s4.59 2.06 4.59 4.59-2.06 4.59-4.59 4.59zM32 17c-.525 0-1.042.213-1.413.585A2.01 2.01 0 0 0 30 19c0 .526.215 1.042.587 1.415.371.37.888.585 1.413.585a2.02 2.02 0 0 0 1.415-.585c.372-.373.585-.89.585-1.415 0-.527-.213-1.044-.585-1.415A2.009 2.009 0 0 0 32 17z"/>
    </g>
</svg>
