<svg xmlns="http://www.w3.org/2000/svg" width="50" height="50" viewBox="0 0 50 50">
    <g fill="none" fill-rule="evenodd">
        <circle cx="25" cy="25" r="25" fill="#FFF"/>
        <path fill="#313E48" fill-rule="nonzero" d="M20.515 19h-6.03c-.268 0-.485.181-.485.405v16.19c0 .224.217.405.485.405h6.03c.268 0 .485-.181.485-.405v-16.19c0-.224-.217-.405-.485-.405zM17.501 11A3.504 3.504 0 0 0 14 14.5c0 1.93 1.57 3.5 3.501 3.5C19.431 18 21 16.43 21 14.5S19.43 11 17.501 11zM31.756 19c-1.962 0-3.413.85-4.293 1.816v-1.027a.394.394 0 0 0-.392-.396h-4.679a.394.394 0 0 0-.392.396v15.815c0 .219.176.396.392.396h4.875a.394.394 0 0 0 .393-.396V27.78c0-2.637.71-3.664 2.534-3.664 1.987 0 2.145 1.647 2.145 3.8v7.69c0 .218.175.395.392.395h4.877a.394.394 0 0 0 .392-.396V26.93C38 23.01 37.258 19 31.756 19z"/>
    </g>
</svg>
