<svg width="27" height="26" xmlns="http://www.w3.org/2000/svg" xmlns:xlink="http://www.w3.org/1999/xlink"><use xlink:href="#path0_fill" transform="translate(.1)" fill="#FFF"/><use xlink:href="#path1_fill" transform="translate(5.9 5.78)" fill="#313E48"/><defs><path id="path0_fill" d="M26.346 13c0 7.18-5.898 13-13.173 13S0 20.18 0 13 5.898 0 13.173 0s13.173 5.82 13.173 13z"/><path id="path1_fill" d="M14.525 7.52a1.289 1.289 0 0 0-1.694-.64l-.616.273-1.581-3.487.617-.272a1.258 1.258 0 0 0 .646-1.67 1.287 1.287 0 0 0-1.693-.639l-.616.272-.276-.609A1.288 1.288 0 0 0 7.619.111a1.258 1.258 0 0 0-.647 1.67l.276.61L3.715 3.95l-.276-.609c-.29-.639-1.047-.923-1.693-.639a1.258 1.258 0 0 0-.647 1.671l.276.608-.616.273a1.257 1.257 0 0 0-.647 1.67 1.289 1.289 0 0 0 1.693.64l.617-.274 1.58 3.488-.617.272a1.258 1.258 0 0 0-.647 1.67 1.29 1.29 0 0 0 1.693.64l.617-.273.276.609c.289.638 1.047.923 1.693.638a1.257 1.257 0 0 0 .646-1.67l-.275-.61 3.534-1.559.275.607c.29.64 1.047.925 1.693.64a1.257 1.257 0 0 0 .647-1.671l-.276-.608.616-.273a1.257 1.257 0 0 0 .648-1.67zM6.34 9.745L4.76 6.257l3.534-1.56 1.58 3.488-3.534 1.56z"/></defs></svg>