<svg xmlns="http://www.w3.org/2000/svg" width="50" height="50" viewBox="0 0 50 50">
    <g fill="none" fill-rule="evenodd">
        <circle cx="25" cy="25" r="25" fill="#FFF"/>
        <path fill="#313E48" fill-rule="nonzero" d="M40 23.166a3.732 3.732 0 0 0-5.978-2.968c-2.083-1.442-4.812-2.302-7.715-2.52l1.566-3.662 4.557 1.06a2.79 2.79 0 0 0 2.772 2.507 2.8 2.8 0 0 0 2.8-2.791 2.8 2.8 0 0 0-5.139-1.526l-5.326-1.242a.934.934 0 0 0-1.073.542l-2.166 5.062c-3.134.108-6.121.988-8.376 2.522a3.665 3.665 0 0 0-2.188-.706A3.732 3.732 0 0 0 10 23.166c0 1.36.745 2.59 1.887 3.222-.015.164-.02.331-.02.5 0 5.131 5.862 9.306 13.068 9.306 7.204 0 13.067-4.175 13.067-9.306 0-.145-.005-.288-.014-.431A3.685 3.685 0 0 0 40 23.167zm-4.798-9.305c.514 0 .934.417.934.93a.934.934 0 0 1-1.867 0c0-.513.42-.93.933-.93zM18.401 25.958a1.867 1.867 0 0 1 3.733 0 1.866 1.866 0 0 1-1.866 1.86 1.866 1.866 0 0 1-1.867-1.86zm10.844 6.173a7.364 7.364 0 0 1-8.62 0 .928.928 0 0 1-.21-1.3.938.938 0 0 1 1.303-.208 5.489 5.489 0 0 0 6.433 0 .935.935 0 0 1 1.303.209.93.93 0 0 1-.209 1.299zm.357-4.312a1.865 1.865 0 0 1-1.867-1.861c0-1.026.836-1.861 1.867-1.861 1.03 0 1.867.835 1.867 1.86a1.865 1.865 0 0 1-1.867 1.862z"/>
    </g>
</svg>
