<svg width="31" height="30" xmlns="http://www.w3.org/2000/svg" xmlns:xlink="http://www.w3.org/1999/xlink"><use xlink:href="#path0_fill" fill="#FFF"/><use xlink:href="#path1_fill" transform="translate(5.1 8.33)" fill="#313E48"/><defs><path id="path0_fill" d="M30.35 15c0 8.284-6.794 15-15.175 15C6.795 30 0 23.284 0 15 0 6.716 6.794 0 15.175 0c8.38 0 15.175 6.716 15.175 15z"/><path id="path1_fill" d="M.298 6.793l3.885 1.4 1.504 4.666c.096.299.475.41.726.211l2.166-1.704a.665.665 0 0 1 .787-.02l3.906 2.736c.27.188.65.046.718-.267L16.85.533c.074-.343-.275-.629-.613-.503L.293 5.966a.437.437 0 0 0 .005.827zm5.146.654l7.593-4.513c.137-.08.277.098.16.202L6.931 8.758a1.24 1.24 0 0 0-.403.75l-.213 1.526c-.029.204-.325.224-.384.027l-.82-2.784a.726.726 0 0 1 .333-.83z"/></defs></svg>