<svg width="31" height="30" xmlns="http://www.w3.org/2000/svg" xmlns:xlink="http://www.w3.org/1999/xlink"><use xlink:href="#path0_fill" fill="#FFF"/><use xlink:href="#path1_fill" transform="translate(7.6 9.17)" fill="#313E48"/><defs><path id="path0_fill" d="M30.35 15c0 8.284-6.794 15-15.175 15C6.795 30 0 23.284 0 15 0 6.716 6.794 0 15.175 0c8.38 0 15.175 6.716 15.175 15z"/><path id="path1_fill" d="M15.175 1.479a6.15 6.15 0 0 1-1.788.497A3.162 3.162 0 0 0 14.756.231a6.224 6.224 0 0 1-1.978.766A3.084 3.084 0 0 0 10.506 0c-1.72 0-3.113 1.414-3.113 3.156 0 .247.027.488.08.72-2.587-.132-4.88-1.39-6.416-3.3a3.167 3.167 0 0 0-.42 1.588c0 1.095.55 2.061 1.384 2.627a3.08 3.08 0 0 1-1.41-.396v.039c0 1.529 1.073 2.805 2.496 3.095a3.069 3.069 0 0 1-1.406.052c.397 1.255 1.546 2.168 2.908 2.193A6.191 6.191 0 0 1 0 11.08a8.711 8.711 0 0 0 4.772 1.42c5.726 0 8.856-4.81 8.856-8.981l-.01-.41a6.265 6.265 0 0 0 1.557-1.63z"/></defs></svg>