<?xml version="1.0" encoding="UTF-8"?>
<svg width="50px" height="50px" viewBox="0 0 50 50" version="1.1" xmlns="http://www.w3.org/2000/svg" xmlns:xlink="http://www.w3.org/1999/xlink">
    <!-- Generator: Sketch 49 (51002) - http://www.bohemiancoding.com/sketch -->
    <title>Artboard 14</title>
    <desc>Created with Sketch.</desc>
    <defs></defs>
    <g id="Artboard-14" stroke="none" stroke-width="1" fill="none" fill-rule="evenodd">
        <g id="Group">
            <circle id="Oval" fill="#FFFFFF" cx="25" cy="25" r="25"></circle>
            <path d="M38.3696548,15.9925227 C37.3228484,14.7400578 35.3901387,14.2291667 31.6990935,14.2291667 L18.3006258,14.2291667 C14.5251065,14.2291667 12.5596548,14.7730125 11.5167774,16.1064516 C10.5,17.4065595 10.5,19.322166 10.5,21.9734144 L10.5,27.0266798 C10.5,32.1629909 11.7064,34.7708333 18.3006258,34.7708333 L31.6991871,34.7708333 C34.9000387,34.7708333 36.6737161,34.3200138 37.8211806,33.2147149 C38.9979258,32.0812634 39.5,30.2306247 39.5,27.0266798 L39.5,21.9734144 C39.5,19.177448 39.4213258,17.2505428 38.3696548,15.9925227 Z M29.1180935,25.1976969 L23.0338935,28.398158 C22.8978742,28.4697167 22.7491323,28.5052135 22.6005774,28.5052135 C22.4323774,28.5052135 22.2645516,28.459642 22.1159032,28.3690638 C21.8360065,28.1983587 21.6650935,27.8930104 21.6650935,27.5636522 L21.6650935,21.1832561 C21.6650935,20.8544629 21.8355387,20.549397 22.1148742,20.3785978 C22.3943032,20.2077986 22.7418355,20.1961232 23.0317419,20.3477146 L29.1159419,23.5275555 C29.4254935,23.6893157 29.6198871,24.0109531 29.6203548,24.361873 C29.620729,24.7130753 29.4271774,25.0351835 29.1180935,25.1976969 Z" id="youtube" fill="#313E48" fill-rule="nonzero"></path>
        </g>
    </g>
</svg>