<?xml version="1.0" encoding="UTF-8"?>
<svg width="674px" height="589px" viewBox="0 0 674 589" version="1.1" xmlns="http://www.w3.org/2000/svg" xmlns:xlink="http://www.w3.org/1999/xlink">
    <!-- Generator: Sketch 48.2 (47327) - http://www.bohemiancoding.com/sketch -->
    <title> </title>
    <desc>Created with Sketch.</desc>
    <defs>
        <polygon id="path-1" points="0 0.676 488 0.676 488 488.6756 0 488.6756"></polygon>
        <polygon id="path-3" points="0 581.324 597 581.324 597 1 0 1"></polygon>
        <circle id="path-5" cx="550" cy="291" r="62"></circle>
        <filter x="-25.4%" y="-23.0%" width="150.8%" height="150.8%" filterUnits="objectBoundingBox" id="filter-6">
            <feOffset dx="0" dy="3" in="SourceAlpha" result="shadowOffsetOuter1"></feOffset>
            <feGaussianBlur stdDeviation="10" in="shadowOffsetOuter1" result="shadowBlurOuter1"></feGaussianBlur>
            <feColorMatrix values="0 0 0 0 0.725366709   0 0 0 0 0.725366709   0 0 0 0 0.725366709  0 0 0 0.5 0" type="matrix" in="shadowBlurOuter1"></feColorMatrix>
        </filter>
        <circle id="path-7" cx="62" cy="291" r="62"></circle>
        <filter x="-25.4%" y="-23.0%" width="150.8%" height="150.8%" filterUnits="objectBoundingBox" id="filter-8">
            <feOffset dx="0" dy="3" in="SourceAlpha" result="shadowOffsetOuter1"></feOffset>
            <feGaussianBlur stdDeviation="10" in="shadowOffsetOuter1" result="shadowBlurOuter1"></feGaussianBlur>
            <feColorMatrix values="0 0 0 0 0.725366709   0 0 0 0 0.725366709   0 0 0 0 0.725366709  0 0 0 0.5 0" type="matrix" in="shadowBlurOuter1"></feColorMatrix>
        </filter>
        <circle id="path-9" cx="306" cy="492" r="62"></circle>
        <filter x="-25.4%" y="-23.0%" width="150.8%" height="150.8%" filterUnits="objectBoundingBox" id="filter-10">
            <feOffset dx="0" dy="3" in="SourceAlpha" result="shadowOffsetOuter1"></feOffset>
            <feGaussianBlur stdDeviation="10" in="shadowOffsetOuter1" result="shadowBlurOuter1"></feGaussianBlur>
            <feColorMatrix values="0 0 0 0 0.725366709   0 0 0 0 0.725366709   0 0 0 0 0.725366709  0 0 0 0.5 0" type="matrix" in="shadowBlurOuter1"></feColorMatrix>
        </filter>
    </defs>
    <g id="Page-1" stroke="none" stroke-width="1" fill="none" fill-rule="evenodd">
        <g id="-">
            <g id="Group-2" transform="translate(31.000000, 3.000000)">
                <g id="Page-1" transform="translate(9.000000, 0.000000)">
                    <g id="Group-3" transform="translate(53.000000, 0.324000)">
                        <mask id="mask-2" fill="white">
                            <use xlink:href="#path-1"></use>
                        </mask>
                        <g id="Clip-2"></g>
                        <path d="M244,2.6756 C377.653,2.6756 486,111.0226 486,244.6756 L488,244.6756 C488,109.9186 378.757,0.6756 244,0.6756 L244,2.6756 Z M2,244.6756 C2,111.0226 110.347,2.6756 244,2.6756 L244,0.6756 C109.243,0.6756 0,109.9186 0,244.6756 L2,244.6756 Z M244,486.6756 C110.347,486.6756 2,378.3286 2,244.6756 L0,244.6756 C0,379.4326 109.243,488.6756 244,488.6756 L244,486.6756 Z M486,244.6756 C486,378.3286 377.653,486.6756 244,486.6756 L244,488.6756 C378.757,488.6756 488,379.4326 488,244.6756 L486,244.6756 Z" id="Fill-1" fill="#E3E3E3" mask="url(#mask-2)"></path>
                    </g>
                    <path d="M297,135.9996 C357.199,135.9996 406,184.8006 406,244.9996 L408,244.9996 C408,183.6966 358.304,133.9996 297,133.9996 L297,135.9996 Z M188,244.9996 C188,184.8006 236.801,135.9996 297,135.9996 L297,133.9996 C235.696,133.9996 186,183.6966 186,244.9996 L188,244.9996 Z M297,353.9996 C236.801,353.9996 188,305.1986 188,244.9996 L186,244.9996 C186,306.3036 235.696,355.9996 297,355.9996 L297,353.9996 Z M406,244.9996 C406,305.1986 357.199,353.9996 297,353.9996 L297,355.9996 C358.304,355.9996 408,306.3036 408,244.9996 L406,244.9996 Z" id="Fill-4" fill="#E3E3E3"></path>
                    <path d="M297,123.9996 C363.826,123.9996 418,178.1736 418,244.9996 L420,244.9996 C420,177.0686 364.931,121.9996 297,121.9996 L297,123.9996 Z M176,244.9996 C176,178.1736 230.173,123.9996 297,123.9996 L297,121.9996 C229.069,121.9996 174,177.0686 174,244.9996 L176,244.9996 Z M297,365.9996 C230.173,365.9996 176,311.8256 176,244.9996 L174,244.9996 C174,312.9316 229.069,367.9996 297,367.9996 L297,365.9996 Z M418,244.9996 C418,311.8256 363.826,365.9996 297,365.9996 L297,367.9996 C364.931,367.9996 420,312.9316 420,244.9996 L418,244.9996 Z" id="Fill-6" fill="#E3E3E3"></path>
                    <path d="M297,110.9996 C371.006,110.9996 431,170.9936 431,244.9996 L433,244.9996 C433,169.8896 372.111,108.9996 297,108.9996 L297,110.9996 Z M163,244.9996 C163,170.9936 222.994,110.9996 297,110.9996 L297,108.9996 C221.889,108.9996 161,169.8896 161,244.9996 L163,244.9996 Z M297,378.9996 C222.994,378.9996 163,319.0056 163,244.9996 L161,244.9996 C161,320.1106 221.889,380.9996 297,380.9996 L297,378.9996 Z M431,244.9996 C431,319.0056 371.006,378.9996 297,378.9996 L297,380.9996 C372.111,380.9996 433,320.1106 433,244.9996 L431,244.9996 Z" id="Fill-8" fill="#E3E3E3"></path>
                    <path d="M297,94.9996 C379.843,94.9996 447,162.1576 447,244.9996 L449,244.9996 C449,161.0526 380.947,92.9996 297,92.9996 L297,94.9996 Z M147,244.9996 C147,162.1576 214.157,94.9996 297,94.9996 L297,92.9996 C213.053,92.9996 145,161.0526 145,244.9996 L147,244.9996 Z M297,394.9996 C214.157,394.9996 147,327.8426 147,244.9996 L145,244.9996 C145,328.9466 213.053,396.9996 297,396.9996 L297,394.9996 Z M447,244.9996 C447,327.8426 379.843,394.9996 297,394.9996 L297,396.9996 C380.947,396.9996 449,328.9466 449,244.9996 L447,244.9996 Z" id="Fill-10" fill="#E3E3E3"></path>
                    <path d="M297,79.9996 C388.127,79.9996 462,153.8726 462,244.9996 L464,244.9996 C464,152.7686 389.232,77.9996 297,77.9996 L297,79.9996 Z M132,244.9996 C132,153.8726 205.873,79.9996 297,79.9996 L297,77.9996 C204.769,77.9996 130,152.7686 130,244.9996 L132,244.9996 Z M297,409.9996 C205.873,409.9996 132,336.1266 132,244.9996 L130,244.9996 C130,337.2316 204.769,411.9996 297,411.9996 L297,409.9996 Z M462,244.9996 C462,336.1266 388.127,409.9996 297,409.9996 L297,411.9996 C389.232,411.9996 464,337.2316 464,244.9996 L462,244.9996 Z" id="Fill-12" fill="#E3E3E3"></path>
                    <path d="M297,62.9996 C397.516,62.9996 479,144.4836 479,244.9996 L481,244.9996 C481,143.3796 398.62,60.9996 297,60.9996 L297,62.9996 Z M115,244.9996 C115,144.4836 196.484,62.9996 297,62.9996 L297,60.9996 C195.379,60.9996 113,143.3796 113,244.9996 L115,244.9996 Z M297,426.9996 C196.484,426.9996 115,345.5166 115,244.9996 L113,244.9996 C113,346.6196 195.379,428.9996 297,428.9996 L297,426.9996 Z M479,244.9996 C479,345.5166 397.516,426.9996 297,426.9996 L297,428.9996 C398.62,428.9996 481,346.6196 481,244.9996 L479,244.9996 Z" id="Fill-14" fill="#E3E3E3"></path>
                    <path d="M297,43.9996 C408.009,43.9996 498,133.9906 498,244.9996 L500,244.9996 C500,132.8856 409.114,41.9996 297,41.9996 L297,43.9996 Z M96,244.9996 C96,133.9906 185.991,43.9996 297,43.9996 L297,41.9996 C184.886,41.9996 94,132.8856 94,244.9996 L96,244.9996 Z M297,445.9996 C185.991,445.9996 96,356.0086 96,244.9996 L94,244.9996 C94,357.1136 184.886,447.9996 297,447.9996 L297,445.9996 Z M498,244.9996 C498,356.0086 408.009,445.9996 297,445.9996 L297,447.9996 C409.114,447.9996 500,357.1136 500,244.9996 L498,244.9996 Z" id="Fill-16" fill="#E3E3E3"></path>
                    <path d="M297,23.9996 C419.055,23.9996 518,122.9446 518,244.9996 L520,244.9996 C520,121.8406 420.159,21.9996 297,21.9996 L297,23.9996 Z M76,244.9996 C76,122.9446 174.945,23.9996 297,23.9996 L297,21.9996 C173.84,21.9996 74,121.8406 74,244.9996 L76,244.9996 Z M297,465.9996 C174.945,465.9996 76,367.0556 76,244.9996 L74,244.9996 C74,368.1586 173.84,467.9996 297,467.9996 L297,465.9996 Z M518,244.9996 C518,367.0556 419.055,465.9996 297,465.9996 L297,467.9996 C420.159,467.9996 520,368.1586 520,244.9996 L518,244.9996 Z" id="Fill-18" fill="#E3E3E3"></path>
                    <path d="M397,244.9996 C397,300.2286 352.228,344.9996 297,344.9996 C241.771,344.9996 197,300.2286 197,244.9996 C197,189.7706 241.771,144.9996 297,144.9996 C352.228,144.9996 397,189.7706 397,244.9996" id="Fill-20" fill="#FFFFFF"></path>
                    <path d="M194.8706,260.0719 L195.3456,259.9599 L194.6546,257.0399 L194.1796,257.1529 L194.8706,260.0719 Z M187.2706,261.8719 L188.2206,261.6469 L187.5296,258.7279 L186.5786,258.9529 L187.2706,261.8719 Z M179.6706,263.6719 L180.6206,263.4469 L179.9296,260.5279 L178.9796,260.7529 L179.6706,263.6719 Z M172.0706,265.4719 L173.0206,265.2469 L172.3286,262.3279 L171.3796,262.5529 L172.0706,265.4719 Z M164.4706,267.2719 L165.4206,267.0469 L164.7296,264.1279 L163.7796,264.3529 L164.4706,267.2719 Z M156.8706,269.0719 L157.8206,268.8469 L157.1296,265.9279 L156.1796,266.1529 L156.8706,269.0719 Z M149.2706,270.8719 L150.2206,270.6469 L149.5296,267.7279 L148.5786,267.9529 L149.2706,270.8719 Z M141.6706,272.6719 L142.6206,272.4469 L141.9296,269.5279 L140.9796,269.7529 L141.6706,272.6719 Z M134.0706,274.4719 L135.0206,274.2469 L134.3286,271.3279 L133.3796,271.5529 L134.0706,274.4719 Z M126.4706,276.2719 L127.4206,276.0469 L126.7296,273.1279 L125.7796,273.3529 L126.4706,276.2719 Z M119.3456,277.9599 L119.8206,277.8469 L119.1296,274.9279 L118.6546,275.0399 L119.3456,277.9599 Z M194.1796,257.1529 C193.3726,257.3429 192.8746,258.1519 193.0656,258.9579 C193.2566,259.7639 194.0646,260.2629 194.8706,260.0719 L194.1796,257.1529 Z M188.2206,261.6469 C189.0266,261.4559 189.5256,260.6479 189.3346,259.8419 C189.1436,259.0349 188.3356,258.5369 187.5296,258.7279 L188.2206,261.6469 Z M186.5786,258.9529 C185.7736,259.1439 185.2746,259.9519 185.4656,260.7579 C185.6566,261.5639 186.4646,262.0629 187.2706,261.8719 L186.5786,258.9529 Z M180.6206,263.4469 C181.4266,263.2559 181.9256,262.4479 181.7346,261.6419 C181.5436,260.8359 180.7356,260.3369 179.9296,260.5279 L180.6206,263.4469 Z M178.9796,260.7529 C178.1736,260.9439 177.6746,261.7519 177.8656,262.5579 C178.0566,263.3639 178.8646,263.8629 179.6706,263.6719 L178.9796,260.7529 Z M173.0206,265.2469 C173.8266,265.0559 174.3256,264.2479 174.1346,263.4419 C173.9436,262.6349 173.1356,262.1369 172.3286,262.3279 L173.0206,265.2469 Z M171.3796,262.5529 C170.5736,262.7439 170.0746,263.5519 170.2656,264.3579 C170.4556,265.1639 171.2646,265.6629 172.0706,265.4719 L171.3796,262.5529 Z M165.4206,267.0469 C166.2266,266.8559 166.7256,266.0479 166.5346,265.2419 C166.3436,264.4359 165.5356,263.9369 164.7296,264.1279 L165.4206,267.0469 Z M163.7796,264.3529 C162.9736,264.5439 162.4746,265.3519 162.6656,266.1579 C162.8566,266.9639 163.6646,267.4629 164.4706,267.2719 L163.7796,264.3529 Z M157.8206,268.8469 C158.6266,268.6559 159.1256,267.8479 158.9346,267.0419 C158.7436,266.2359 157.9356,265.7369 157.1296,265.9279 L157.8206,268.8469 Z M156.1796,266.1529 C155.3726,266.3429 154.8746,267.1519 155.0656,267.9579 C155.2566,268.7639 156.0646,269.2629 156.8706,269.0719 L156.1796,266.1529 Z M150.2206,270.6469 C151.0266,270.4559 151.5256,269.6479 151.3346,268.8419 C151.1436,268.0349 150.3356,267.5369 149.5296,267.7279 L150.2206,270.6469 Z M148.5786,267.9529 C147.7736,268.1439 147.2746,268.9519 147.4656,269.7579 C147.6566,270.5639 148.4646,271.0629 149.2706,270.8719 L148.5786,267.9529 Z M142.6206,272.4469 C143.4266,272.2559 143.9256,271.4479 143.7346,270.6419 C143.5436,269.8359 142.7356,269.3369 141.9296,269.5279 L142.6206,272.4469 Z M140.9796,269.7529 C140.1736,269.9439 139.6746,270.7519 139.8656,271.5579 C140.0566,272.3639 140.8646,272.8629 141.6706,272.6719 L140.9796,269.7529 Z M135.0206,274.2469 C135.8266,274.0559 136.3256,273.2479 136.1346,272.4419 C135.9436,271.6349 135.1356,271.1369 134.3286,271.3279 L135.0206,274.2469 Z M133.3796,271.5529 C132.5736,271.7439 132.0746,272.5519 132.2656,273.3579 C132.4566,274.1639 133.2646,274.6629 134.0706,274.4719 L133.3796,271.5529 Z M127.4206,276.0469 C128.2266,275.8559 128.7256,275.0479 128.5346,274.2419 C128.3436,273.4359 127.5356,272.9369 126.7296,273.1279 L127.4206,276.0469 Z M125.7796,273.3529 C124.9736,273.5439 124.4746,274.3519 124.6656,275.1579 C124.8566,275.9639 125.6646,276.4629 126.4706,276.2719 L125.7796,273.3529 Z M119.8206,277.8469 C120.6266,277.6559 121.1256,276.8479 120.9346,276.0419 C120.7436,275.2359 119.9356,274.7369 119.1296,274.9279 L119.8206,277.8469 Z M118.6546,275.0399 C117.8486,275.2309 117.3496,276.0389 117.5406,276.8449 C117.7316,277.6519 118.5396,278.1509 119.3456,277.9599 L118.6546,275.0399 Z M195.3456,259.9599 C196.1516,259.7689 196.6506,258.9599 196.4596,258.1539 C196.2686,257.3479 195.4606,256.8489 194.6546,257.0399 L195.3456,259.9599 Z" id="Fill-22" fill="#CFCFCF"></path>
                    <path d="M399.1289,260.0719 L398.6539,259.9599 L399.3459,257.0399 L399.8199,257.1529 L399.1289,260.0719 Z M406.7299,261.8719 L405.7789,261.6469 L406.4709,258.7279 L407.4209,258.9529 L406.7299,261.8719 Z M414.3289,263.6719 L413.3789,263.4469 L414.0699,260.5279 L415.0209,260.7529 L414.3289,263.6719 Z M421.9299,265.4719 L420.9799,265.2469 L421.6709,262.3279 L422.6209,262.5529 L421.9299,265.4719 Z M429.5289,267.2719 L428.5789,267.0469 L429.2709,264.1279 L430.2209,264.3529 L429.5289,267.2719 Z M437.1289,269.0719 L436.1799,268.8469 L436.8709,265.9279 L437.8199,266.1529 L437.1289,269.0719 Z M444.7299,270.8719 L443.7789,270.6469 L444.4709,267.7279 L445.4209,267.9529 L444.7299,270.8719 Z M452.3289,272.6719 L451.3789,272.4469 L452.0699,269.5279 L453.0209,269.7529 L452.3289,272.6719 Z M459.9299,274.4719 L458.9799,274.2469 L459.6709,271.3279 L460.6209,271.5529 L459.9299,274.4719 Z M467.5289,276.2719 L466.5789,276.0469 L467.2709,273.1279 L468.2209,273.3529 L467.5289,276.2719 Z M474.6539,277.9599 L474.1799,277.8469 L474.8709,274.9279 L475.3459,275.0399 L474.6539,277.9599 Z M399.8199,257.1529 C400.6269,257.3429 401.1259,258.1519 400.9349,258.9579 C400.7439,259.7639 399.9359,260.2629 399.1289,260.0719 L399.8199,257.1529 Z M405.7789,261.6469 C404.9739,261.4559 404.4749,260.6479 404.6649,259.8419 C404.8569,259.0349 405.6649,258.5369 406.4709,258.7279 L405.7789,261.6469 Z M407.4209,258.9529 C408.2269,259.1439 408.7259,259.9519 408.5339,260.7579 C408.3439,261.5639 407.5349,262.0629 406.7299,261.8719 L407.4209,258.9529 Z M413.3789,263.4469 C412.5729,263.2559 412.0739,262.4479 412.2659,261.6419 C412.4559,260.8359 413.2649,260.3369 414.0699,260.5279 L413.3789,263.4469 Z M415.0209,260.7529 C415.8269,260.9439 416.3249,261.7519 416.1349,262.5579 C415.9429,263.3639 415.1359,263.8629 414.3289,263.6719 L415.0209,260.7529 Z M420.9799,265.2469 C420.1729,265.0559 419.6749,264.2479 419.8649,263.4419 C420.0569,262.6349 420.8639,262.1369 421.6709,262.3279 L420.9799,265.2469 Z M422.6209,262.5529 C423.4269,262.7439 423.9259,263.5519 423.7339,264.3579 C423.5439,265.1639 422.7349,265.6629 421.9299,265.4719 L422.6209,262.5529 Z M428.5789,267.0469 C427.7739,266.8559 427.2749,266.0479 427.4659,265.2419 C427.6559,264.4359 428.4649,263.9369 429.2709,264.1279 L428.5789,267.0469 Z M430.2209,264.3529 C431.0259,264.5439 431.5249,265.3519 431.3349,266.1579 C431.1439,266.9639 430.3349,267.4629 429.5289,267.2719 L430.2209,264.3529 Z M436.1799,268.8469 C435.3729,268.6559 434.8739,267.8479 435.0659,267.0419 C435.2559,266.2359 436.0649,265.7369 436.8709,265.9279 L436.1799,268.8469 Z M437.8199,266.1529 C438.6269,266.3429 439.1259,267.1519 438.9349,267.9579 C438.7439,268.7639 437.9359,269.2629 437.1289,269.0719 L437.8199,266.1529 Z M443.7789,270.6469 C442.9739,270.4559 442.4749,269.6479 442.6649,268.8419 C442.8569,268.0349 443.6649,267.5369 444.4709,267.7279 L443.7789,270.6469 Z M445.4209,267.9529 C446.2269,268.1439 446.7259,268.9519 446.5339,269.7579 C446.3439,270.5639 445.5349,271.0629 444.7299,270.8719 L445.4209,267.9529 Z M451.3789,272.4469 C450.5729,272.2559 450.0739,271.4479 450.2659,270.6419 C450.4559,269.8359 451.2649,269.3369 452.0699,269.5279 L451.3789,272.4469 Z M453.0209,269.7529 C453.8269,269.9439 454.3249,270.7519 454.1349,271.5579 C453.9429,272.3639 453.1359,272.8629 452.3289,272.6719 L453.0209,269.7529 Z M458.9799,274.2469 C458.1729,274.0559 457.6749,273.2479 457.8649,272.4419 C458.0569,271.6349 458.8639,271.1369 459.6709,271.3279 L458.9799,274.2469 Z M460.6209,271.5529 C461.4269,271.7439 461.9259,272.5519 461.7339,273.3579 C461.5439,274.1639 460.7349,274.6629 459.9299,274.4719 L460.6209,271.5529 Z M466.5789,276.0469 C465.7739,275.8559 465.2749,275.0479 465.4659,274.2419 C465.6559,273.4359 466.4649,272.9369 467.2709,273.1279 L466.5789,276.0469 Z M468.2209,273.3529 C469.0259,273.5439 469.5249,274.3519 469.3349,275.1579 C469.1439,275.9639 468.3349,276.4629 467.5289,276.2719 L468.2209,273.3529 Z M474.1799,277.8469 C473.3729,277.6559 472.8739,276.8479 473.0659,276.0419 C473.2559,275.2359 474.0649,274.7369 474.8709,274.9279 L474.1799,277.8469 Z M475.3459,275.0399 C476.1509,275.2309 476.6499,276.0389 476.4599,276.8449 C476.2689,277.6519 475.4599,278.1509 474.6539,277.9599 L475.3459,275.0399 Z M398.6539,259.9599 C397.8489,259.7689 397.3499,258.9599 397.5399,258.1539 C397.7319,257.3479 398.5399,256.8489 399.3459,257.0399 L398.6539,259.9599 Z" id="Fill-24" fill="#CFCFCF"></path>
                    <mask id="mask-4" fill="white">
                        <use xlink:href="#path-3"></use>
                    </mask>
                    <g id="Clip-27"></g>
                    <path d="M297.5,422.5 L300.5,422.5 L300.5,421.979 L297.5,421.979 L297.5,422.5 Z M297.5,414.687 L300.5,414.687 L300.5,413.645 L297.5,413.645 L297.5,414.687 Z M297.5,406.354 L300.5,406.354 L300.5,405.312 L297.5,405.312 L297.5,406.354 Z M297.5,398.02 L300.5,398.02 L300.5,396.979 L297.5,396.979 L297.5,398.02 Z M297.5,389.687 L300.5,389.687 L300.5,388.645 L297.5,388.645 L297.5,389.687 Z M297.5,381.354 L300.5,381.354 L300.5,380.312 L297.5,380.312 L297.5,381.354 Z M297.5,373.02 L300.5,373.02 L300.5,371.979 L297.5,371.979 L297.5,373.02 Z M297.5,364.687 L300.5,364.687 L300.5,363.645 L297.5,363.645 L297.5,364.687 Z M297.5,356.354 L300.5,356.354 L300.5,355.312 L297.5,355.312 L297.5,356.354 Z M297.5,348.021 L300.5,348.021 L300.5,347.5 L297.5,347.5 L297.5,348.021 Z M300.5,421.979 C300.5,421.151 299.828,420.479 299,420.479 C298.172,420.479 297.5,421.151 297.5,421.979 L300.5,421.979 Z M297.5,414.687 C297.5,415.515 298.172,416.187 299,416.187 C299.828,416.187 300.5,415.515 300.5,414.687 L297.5,414.687 Z M300.5,413.645 C300.5,412.817 299.828,412.145 299,412.145 C298.172,412.145 297.5,412.817 297.5,413.645 L300.5,413.645 Z M297.5,406.354 C297.5,407.182 298.172,407.854 299,407.854 C299.828,407.854 300.5,407.182 300.5,406.354 L297.5,406.354 Z M300.5,405.312 C300.5,404.484 299.828,403.812 299,403.812 C298.172,403.812 297.5,404.484 297.5,405.312 L300.5,405.312 Z M297.5,398.02 C297.5,398.849 298.172,399.52 299,399.52 C299.828,399.52 300.5,398.849 300.5,398.02 L297.5,398.02 Z M300.5,396.979 C300.5,396.151 299.828,395.479 299,395.479 C298.172,395.479 297.5,396.151 297.5,396.979 L300.5,396.979 Z M297.5,389.687 C297.5,390.515 298.172,391.187 299,391.187 C299.828,391.187 300.5,390.515 300.5,389.687 L297.5,389.687 Z M300.5,388.645 C300.5,387.817 299.828,387.145 299,387.145 C298.172,387.145 297.5,387.817 297.5,388.645 L300.5,388.645 Z M297.5,381.354 C297.5,382.182 298.172,382.854 299,382.854 C299.828,382.854 300.5,382.182 300.5,381.354 L297.5,381.354 Z M300.5,380.312 C300.5,379.484 299.828,378.812 299,378.812 C298.172,378.812 297.5,379.484 297.5,380.312 L300.5,380.312 Z M297.5,373.02 C297.5,373.849 298.172,374.52 299,374.52 C299.828,374.52 300.5,373.849 300.5,373.02 L297.5,373.02 Z M300.5,371.979 C300.5,371.151 299.828,370.479 299,370.479 C298.172,370.479 297.5,371.151 297.5,371.979 L300.5,371.979 Z M297.5,364.687 C297.5,365.515 298.172,366.187 299,366.187 C299.828,366.187 300.5,365.515 300.5,364.687 L297.5,364.687 Z M300.5,363.645 C300.5,362.817 299.828,362.145 299,362.145 C298.172,362.145 297.5,362.817 297.5,363.645 L300.5,363.645 Z M297.5,356.354 C297.5,357.182 298.172,357.854 299,357.854 C299.828,357.854 300.5,357.182 300.5,356.354 L297.5,356.354 Z M300.5,355.312 C300.5,354.484 299.828,353.812 299,353.812 C298.172,353.812 297.5,354.484 297.5,355.312 L300.5,355.312 Z M297.5,348.021 C297.5,348.849 298.172,349.521 299,349.521 C299.828,349.521 300.5,348.849 300.5,348.021 L297.5,348.021 Z M297.5,422.5 C297.5,423.328 298.172,424 299,424 C299.828,424 300.5,423.328 300.5,422.5 L297.5,422.5 Z M300.5,347.5 C300.5,346.671 299.828,346 299,346 C298.172,346 297.5,346.671 297.5,347.5 L300.5,347.5 Z" id="Fill-26" fill="#00ADD9" mask="url(#mask-4)"></path>
                    <path d="M119,293.4996 C119,326.3606 92.361,352.9996 59.5,352.9996 C26.639,352.9996 0,326.3606 0,293.4996 C0,260.6386 26.639,233.9996 59.5,233.9996 C92.361,233.9996 119,260.6386 119,293.4996" id="Fill-28" fill="#FFFFFF" mask="url(#mask-4)"></path>
                    <path d="M594,293.4996 C594,326.3606 567.361,352.9996 534.5,352.9996 C501.639,352.9996 475,326.3606 475,293.4996 C475,260.6386 501.639,233.9996 534.5,233.9996 C567.361,233.9996 594,260.6386 594,293.4996" id="Fill-29" fill="#FFFFFF" mask="url(#mask-4)"></path>
                    <path d="M358,487.4996 C358,520.3606 331.361,546.9996 298.5,546.9996 C265.639,546.9996 239,520.3606 239,487.4996 C239,454.6396 265.639,427.9996 298.5,427.9996 C331.361,427.9996 358,454.6396 358,487.4996" id="Fill-30" fill="#FFFFFF" mask="url(#mask-4)"></path>
                    <path d="M358,487.4996 C358,520.3606 331.361,546.9996 298.5,546.9996 C265.639,546.9996 239,520.3606 239,487.4996 C239,454.6396 265.639,427.9996 298.5,427.9996 C331.361,427.9996 358,454.6396 358,487.4996" id="Fill-31" fill="#FFFFFF" mask="url(#mask-4)"></path>
                    <path d="M383.0859,71.4723 C383.0859,73.3733 382.3629,74.8383 380.9179,75.8673 C379.4729,76.8823 377.4219,77.3903 374.7659,77.3903 C371.9269,77.3903 369.6739,76.9543 368.0079,76.0813 L368.0079,73.9923 C370.1429,75.0593 372.3969,75.5933 374.7659,75.5933 C376.8619,75.5933 378.4509,75.2483 379.5309,74.5583 C380.6249,73.8553 381.1719,72.9243 381.1719,71.7653 C381.1719,70.6983 380.7359,69.7993 379.8629,69.0703 C379.0039,68.3413 377.5849,67.6243 375.6059,66.9213 C373.4829,66.1533 371.9919,65.4953 371.1329,64.9493 C370.2729,64.3893 369.6219,63.7643 369.1799,63.0743 C368.7499,62.3703 368.5349,61.5183 368.5349,60.5153 C368.5349,58.9273 369.1989,57.6703 370.5269,56.7453 C371.8679,55.8213 373.7369,55.3593 376.1329,55.3593 C378.4239,55.3593 380.5989,55.7883 382.6559,56.6483 L381.9339,58.4063 C379.8499,57.5463 377.9169,57.1173 376.1329,57.1173 C374.4009,57.1173 373.0269,57.4033 372.0119,57.9763 C370.9959,58.5493 370.4879,59.3433 370.4879,60.3593 C370.4879,61.4663 370.8789,62.3513 371.6599,63.0153 C372.4539,63.6793 373.9969,64.4213 376.2889,65.2423 C378.2029,65.9323 379.5959,66.5573 380.4689,67.1173 C381.3409,67.6633 381.9919,68.2883 382.4219,68.9923 C382.8649,69.6953 383.0859,70.5223 383.0859,71.4723 Z M355.9769,57.0773 C353.9319,57.0773 352.2919,57.7553 351.0549,59.1093 C349.8179,60.4503 349.0949,62.3903 348.8869,64.9293 L362.0119,64.9293 C362.0119,62.4683 361.4779,60.5483 360.4099,59.1673 C359.3419,57.7743 357.8649,57.0773 355.9769,57.0773 Z M356.5429,77.3903 C353.4569,77.3903 351.0479,76.4403 349.3159,74.5383 C347.5979,72.6383 346.7379,69.9753 346.7379,66.5503 C346.7379,63.1653 347.5719,60.4563 349.2379,58.4253 C350.9049,56.3813 353.1509,55.3593 355.9769,55.3593 C358.4769,55.3593 360.4489,56.2313 361.8949,57.9763 C363.3399,59.7213 364.0619,62.0913 364.0619,65.0853 L364.0619,66.6483 L348.7699,66.6483 C348.7959,69.5653 349.4729,71.7913 350.8009,73.3273 C352.1419,74.8643 354.0559,75.6323 356.5429,75.6323 C357.7539,75.6323 358.8149,75.5483 359.7269,75.3783 C360.6509,75.2093 361.8159,74.8453 363.2229,74.2853 L363.2229,76.0423 C362.0249,76.5633 360.9179,76.9153 359.9019,77.0973 C358.8869,77.2923 357.7669,77.3903 356.5429,77.3903 Z M340.7419,55.3593 C341.6409,55.3593 342.6039,55.4503 343.6329,55.6323 L343.2619,57.4883 C342.3759,57.2663 341.4579,57.1563 340.5079,57.1563 C338.6979,57.1563 337.2139,57.9243 336.0549,59.4603 C334.8969,60.9973 334.3159,62.9373 334.3159,65.2813 L334.3159,76.9993 L332.3829,76.9993 L332.3829,55.7693 L334.0229,55.7693 L334.2189,59.5973 L334.3559,59.5973 C335.2279,58.0343 336.1589,56.9413 337.1479,56.3163 C338.1379,55.6783 339.3359,55.3593 340.7419,55.3593 Z M310.4689,55.7693 L310.4689,69.5193 C310.4689,71.6553 310.9179,73.2103 311.8159,74.1873 C312.7149,75.1513 314.1079,75.6323 315.9959,75.6323 C318.5229,75.6323 320.3779,74.9943 321.5619,73.7183 C322.7599,72.4423 323.3589,70.3663 323.3589,67.4883 L323.3589,55.7693 L325.2729,55.7693 L325.2729,76.9993 L323.6329,76.9993 L323.2809,74.0703 L323.1639,74.0703 C321.7839,76.2843 319.3289,77.3903 315.8009,77.3903 C310.9699,77.3903 308.5549,74.8053 308.5549,69.6363 L308.5549,55.7693 L310.4689,55.7693 Z M300.9959,75.6713 C302.2199,75.6713 303.2879,75.5673 304.1989,75.3593 L304.1989,76.9213 C303.2619,77.2343 302.1809,77.3903 300.9569,77.3903 C299.0819,77.3903 297.6949,76.8893 296.7969,75.8863 C295.9119,74.8843 295.4689,73.3083 295.4689,71.1603 L295.4689,57.4493 L292.3239,57.4493 L292.3239,56.3163 L295.4689,55.4373 L296.4449,50.6323 L297.4409,50.6323 L297.4409,55.7693 L303.6719,55.7693 L303.6719,57.4493 L297.4409,57.4493 L297.4409,70.8863 C297.4409,72.5143 297.7279,73.7183 298.3009,74.4993 C298.8739,75.2813 299.7729,75.6713 300.9959,75.6713 Z M273.4769,55.7693 L273.4769,69.5193 C273.4769,71.6553 273.9259,73.2103 274.8239,74.1873 C275.7229,75.1513 277.1159,75.6323 279.0039,75.6323 C281.5299,75.6323 283.3849,74.9943 284.5699,73.7183 C285.7679,72.4423 286.3669,70.3663 286.3669,67.4883 L286.3669,55.7693 L288.2809,55.7693 L288.2809,76.9993 L286.6409,76.9993 L286.2889,74.0703 L286.1719,74.0703 C284.7919,76.2843 282.3369,77.3903 278.8089,77.3903 C273.9779,77.3903 271.5629,74.8053 271.5629,69.6363 L271.5629,55.7693 L273.4769,55.7693 Z M255.6639,75.6323 C257.9299,75.6323 259.7129,74.9883 261.0159,73.6993 C262.3309,72.3973 262.9879,70.5933 262.9879,68.2883 L262.9879,66.1993 L259.2769,66.3553 C256.2949,66.4983 254.1669,66.9673 252.8909,67.7613 C251.6279,68.5423 250.9959,69.7663 250.9959,71.4333 C250.9959,72.7613 251.3999,73.7963 252.2069,74.5383 C253.0269,75.2683 254.1799,75.6323 255.6639,75.6323 Z M263.4769,76.9993 L262.9879,73.6403 L262.8319,73.6403 C261.7639,75.0073 260.6639,75.9773 259.5309,76.5503 C258.4119,77.1103 257.0839,77.3903 255.5469,77.3903 C253.4629,77.3903 251.8419,76.8563 250.6839,75.7883 C249.5249,74.7213 248.9449,73.2433 248.9449,71.3553 C248.9449,69.2843 249.8049,67.6773 251.5239,66.5313 C253.2549,65.3853 255.7549,64.7803 259.0229,64.7143 L263.0659,64.5973 L263.0659,63.1913 C263.0659,61.1733 262.6559,59.6493 261.8359,58.6203 C261.0159,57.5923 259.6939,57.0773 257.8709,57.0773 C255.9049,57.0773 253.8669,57.6243 251.7579,58.7183 L251.0349,57.0383 C253.3659,55.9453 255.6699,55.3983 257.9489,55.3983 C260.2799,55.3983 262.0179,56.0033 263.1639,57.2143 C264.3229,58.4253 264.9019,60.3133 264.9019,62.8783 L264.9019,76.9993 L263.4769,76.9993 Z M236.6409,57.0773 C234.5959,57.0773 232.9559,57.7553 231.7189,59.1093 C230.4819,60.4503 229.7589,62.3903 229.5509,64.9293 L242.6759,64.9293 C242.6759,62.4683 242.1419,60.5483 241.0739,59.1673 C240.0059,57.7743 238.5289,57.0773 236.6409,57.0773 Z M237.2069,77.3903 C234.1209,77.3903 231.7119,76.4403 229.9809,74.5383 C228.2619,72.6383 227.4019,69.9753 227.4019,66.5503 C227.4019,63.1653 228.2359,60.4563 229.9019,58.4253 C231.5689,56.3813 233.8149,55.3593 236.6409,55.3593 C239.1409,55.3593 241.1129,56.2313 242.5589,57.9763 C244.0039,59.7213 244.7269,62.0913 244.7269,65.0853 L244.7269,66.6483 L229.4339,66.6483 C229.4599,69.5653 230.1369,71.7913 231.4649,73.3273 C232.8059,74.8643 234.7199,75.6323 237.2069,75.6323 C238.4179,75.6323 239.4789,75.5483 240.3909,75.3783 C241.3149,75.2093 242.4809,74.8453 243.8869,74.2853 L243.8869,76.0423 C242.6889,76.5633 241.5819,76.9153 240.5659,77.0973 C239.5509,77.2923 238.4309,77.3903 237.2069,77.3903 Z M211.0349,76.9993 L209.0429,76.9993 L209.0429,48.4453 L224.6879,48.4453 L224.6879,50.2813 L211.0349,50.2813 L211.0349,62.3903 L223.9259,62.3903 L223.9259,64.2453 L211.0349,64.2453 L211.0349,76.9993 Z" id="Fill-32" fill="#474747" mask="url(#mask-4)"></path>
                    <path d="M287.1211,257.1637 C287.1211,258.9347 286.5611,260.4257 285.4411,261.6367 C284.3341,262.8477 282.8441,263.6217 280.9691,263.9607 L280.9691,264.0777 C283.2601,264.3647 285.0051,265.0937 286.2031,266.2657 C287.4011,267.4367 288.0001,269.0127 288.0001,270.9917 C288.0001,273.6617 287.0881,275.7317 285.2661,277.2027 C283.4551,278.6617 280.8451,279.3907 277.4331,279.3907 C274.5301,279.3907 271.9971,278.8507 269.8361,277.7687 L269.8361,275.8357 C270.9301,276.4087 272.1541,276.8577 273.5081,277.1837 C274.8751,277.5087 276.1581,277.6717 277.3551,277.6717 C280.2331,277.6717 282.3941,277.0927 283.8401,275.9337 C285.2851,274.7617 286.0081,273.1147 286.0081,270.9917 C286.0081,269.1037 285.2661,267.6517 283.7811,266.6367 C282.3101,265.6207 280.1421,265.1127 277.2771,265.1127 L274.1911,265.1127 L274.1911,263.2377 L277.3161,263.2377 C279.6861,263.2377 281.5611,262.6787 282.9411,261.5587 C284.3341,260.4257 285.0311,258.8957 285.0311,256.9687 C285.0311,255.3797 284.4651,254.1107 283.3321,253.1597 C282.2121,252.1967 280.7411,251.7147 278.9181,251.7147 C277.4981,251.7147 276.2031,251.9167 275.0311,252.3197 C273.8591,252.7107 272.5441,253.3877 271.0861,254.3507 L270.1291,253.0427 C271.2361,252.1187 272.5701,251.3897 274.1331,250.8547 C275.6951,250.3087 277.2771,250.0347 278.8791,250.0347 C281.5091,250.0347 283.5401,250.6597 284.9731,251.9097 C286.4051,253.1467 287.1211,254.8977 287.1211,257.1637" id="Fill-33" fill="#4F4F4F" mask="url(#mask-4)"></path>
                    <path d="M322.5391,267.2184 C322.5391,271.0314 321.1331,274.0514 318.3201,276.2814 C315.5281,278.5104 311.8101,279.6244 307.1641,279.6244 C301.5811,279.6244 297.3001,279.0104 294.3201,277.7814 L294.3201,274.5934 C297.6121,275.9894 301.8101,276.6874 306.9141,276.6874 C310.6641,276.6874 313.6331,275.8334 315.8201,274.1244 C318.0281,272.3954 319.1331,270.1354 319.1331,267.3434 C319.1331,265.6144 318.7681,264.1874 318.0391,263.0624 C317.3101,261.9164 316.1221,260.8744 314.4761,259.9374 C312.8311,258.9994 310.4141,257.9894 307.2261,256.9054 C302.5601,255.3014 299.3311,253.5724 297.5391,251.7184 C295.7681,249.8434 294.8831,247.3544 294.8831,244.2494 C294.8831,240.8334 296.2161,238.0514 298.8831,235.9064 C301.5701,233.7394 305.0181,232.6554 309.2261,232.6554 C313.5181,232.6554 317.5501,233.4684 321.3201,235.0934 L320.1641,237.8434 C316.3721,236.2604 312.7471,235.4684 309.2891,235.4684 C305.9141,235.4684 303.2271,236.2494 301.2271,237.8124 C299.2271,239.3744 298.2271,241.4994 298.2271,244.1874 C298.2271,245.8744 298.5281,247.2604 299.1331,248.3434 C299.7581,249.4264 300.7681,250.4064 302.1641,251.2804 C303.5601,252.1354 305.9561,253.1664 309.3511,254.3744 C312.9141,255.6044 315.5911,256.8014 317.3831,257.9684 C319.1751,259.1144 320.4761,260.4264 321.2891,261.9064 C322.1221,263.3644 322.5391,265.1354 322.5391,267.2184" id="Fill-34" fill="#00ADD9" mask="url(#mask-4)"></path>
                    <path d="M319.9609,217.2018 L317.7109,217.2018 L317.7109,225.9998 L316.8409,225.9998 L316.8409,217.2018 L315.0649,217.2018 L315.0649,216.6918 L316.8409,216.3668 L316.8409,215.6288 C316.8409,214.4568 317.0549,213.5978 317.4819,213.0538 C317.9159,212.5028 318.6219,212.2268 319.6009,212.2268 C320.1279,212.2268 320.6549,212.3058 321.1829,212.4648 L320.9809,213.2208 C320.5119,213.0738 320.0459,213.0008 319.5829,213.0008 C318.9029,213.0008 318.4199,213.2028 318.1329,213.6068 C317.8519,214.0058 317.7109,214.6558 317.7109,215.5578 L317.7109,216.4458 L319.9609,216.4458 L319.9609,217.2018 Z M306.2239,221.2098 C306.2239,222.5218 306.5109,223.5478 307.0849,224.2858 C307.6649,225.0178 308.4819,225.3848 309.5369,225.3848 C310.5919,225.3848 311.4059,225.0178 311.9809,224.2858 C312.5609,223.5478 312.8509,222.5218 312.8509,221.2098 C312.8509,219.8908 312.5579,218.8688 311.9719,218.1418 C311.3919,217.4158 310.5739,217.0528 309.5199,217.0528 C308.4649,217.0528 307.6499,217.4158 307.0759,218.1418 C306.5079,218.8628 306.2239,219.8858 306.2239,221.2098 Z M313.7649,221.2098 C313.7649,222.7678 313.3869,223.9868 312.6309,224.8658 C311.8749,225.7388 310.8319,226.1758 309.5019,226.1758 C308.6639,226.1758 307.9259,225.9728 307.2869,225.5688 C306.6479,225.1648 306.1589,224.5848 305.8189,223.8288 C305.4799,223.0728 305.3099,222.1998 305.3099,221.2098 C305.3099,219.6508 305.6879,218.4378 306.4429,217.5708 C307.1989,216.6978 308.2359,216.2618 309.5549,216.2618 C310.8669,216.2618 311.8959,216.7038 312.6399,217.5888 C313.3899,218.4678 313.7649,219.6748 313.7649,221.2098 Z M294.9119,217.0348 C293.9919,217.0348 293.2539,217.3398 292.6969,217.9488 C292.1409,218.5528 291.8149,219.4258 291.7219,220.5678 L297.6279,220.5678 C297.6279,219.4608 297.3879,218.5968 296.9069,217.9748 C296.4269,217.3478 295.7619,217.0348 294.9119,217.0348 Z M295.1669,226.1758 C293.7779,226.1758 292.6939,225.7478 291.9149,224.8918 C291.1419,224.0368 290.7549,222.8388 290.7549,221.2978 C290.7549,219.7738 291.1299,218.5558 291.8799,217.6408 C292.6299,216.7218 293.6409,216.2618 294.9119,216.2618 C296.0369,216.2618 296.9249,216.6538 297.5749,217.4388 C298.2259,218.2238 298.5509,219.2908 298.5509,220.6388 L298.5509,221.3418 L291.6689,221.3418 C291.6809,222.6538 291.9849,223.6558 292.5829,224.3478 C293.1869,225.0388 294.0479,225.3848 295.1669,225.3848 C295.7119,225.3848 296.1899,225.3468 296.5999,225.2698 C297.0159,225.1938 297.5399,225.0298 298.1729,224.7778 L298.1729,225.5688 C297.6339,225.8038 297.1359,225.9618 296.6789,226.0438 C296.2219,226.1318 295.7179,226.1758 295.1669,226.1758 Z M287.2309,225.9998 L288.1009,225.9998 L288.1009,212.3238 L287.2309,212.3238 L287.2309,225.9998 Z M277.3689,216.4458 L277.3689,222.6338 C277.3689,223.5948 277.5709,224.2948 277.9759,224.7338 C278.3799,225.1678 279.0069,225.3848 279.8569,225.3848 C280.9929,225.3848 281.8279,225.0978 282.3609,224.5228 C282.8999,223.9488 283.1699,223.0138 283.1699,221.7198 L283.1699,216.4458 L284.0309,216.4458 L284.0309,225.9998 L283.2929,225.9998 L283.1349,224.6808 L283.0819,224.6808 C282.4609,225.6778 281.3569,226.1758 279.7689,226.1758 C277.5949,226.1758 276.5079,225.0128 276.5079,222.6858 L276.5079,216.4458 L277.3689,216.4458 Z M273.3609,216.2618 C273.7659,216.2618 274.1989,216.3028 274.6619,216.3848 L274.4949,217.2198 C274.0969,217.1198 273.6839,217.0698 273.2559,217.0698 C272.4409,217.0698 271.7729,217.4158 271.2519,218.1068 C270.7309,218.7988 270.4699,219.6718 270.4699,220.7258 L270.4699,225.9998 L269.5999,225.9998 L269.5999,216.4458 L270.3379,216.4458 L270.4259,218.1688 L270.4869,218.1688 C270.8799,217.4658 271.2989,216.9728 271.7439,216.6918 C272.1899,216.4048 272.7289,216.2618 273.3609,216.2618 Z" id="Fill-35" fill="#4F4F4F" mask="url(#mask-4)"></path>
                    <path d="M80.3184,378.9537 C81.3144,378.9537 82.0354,378.6837 82.4804,378.1447 C82.9314,377.5997 83.1574,376.7247 83.1574,375.5167 L83.1574,375.2097 C83.1574,373.8447 82.9284,372.8717 82.4714,372.2917 C82.0204,371.7057 81.2974,371.4127 80.3004,371.4127 C79.4454,371.4127 78.7894,371.7467 78.3324,372.4147 C77.8804,373.0767 77.6554,374.0147 77.6554,375.2267 C77.6554,376.4577 77.8804,377.3867 78.3324,378.0137 C78.7834,378.6407 79.4454,378.9537 80.3184,378.9537 Z M83.2364,378.7077 L83.1574,378.7077 C82.4834,379.6857 81.4754,380.1757 80.1334,380.1757 C78.8744,380.1757 77.8924,379.7447 77.1894,378.8837 C76.4924,378.0217 76.1434,376.7977 76.1434,375.2097 C76.1434,373.6217 76.4954,372.3887 77.1984,371.5097 C77.9014,370.6307 78.8804,370.1907 80.1334,370.1907 C81.4404,370.1907 82.4424,370.6657 83.1394,371.6147 L83.2544,371.6147 L83.1924,370.9207 L83.1574,370.2437 L83.1574,366.3237 L84.6164,366.3237 L84.6164,379.9997 L83.4294,379.9997 L83.2364,378.7077 Z M70.2464,371.4127 C69.4724,371.4127 68.8544,371.6647 68.3914,372.1687 C67.9344,372.6727 67.6654,373.3697 67.5834,374.2607 L72.6194,374.2607 C72.6194,373.3407 72.4144,372.6377 72.0044,372.1507 C71.5934,371.6587 71.0074,371.4127 70.2464,371.4127 Z M70.6414,380.1757 C69.2174,380.1757 68.0924,379.7417 67.2664,378.8747 C66.4464,378.0077 66.0364,376.8037 66.0364,375.2627 C66.0364,373.7097 66.4174,372.4757 67.1784,371.5617 C67.9464,370.6477 68.9744,370.1907 70.2634,370.1907 C71.4704,370.1907 72.4254,370.5897 73.1294,371.3867 C73.8324,372.1777 74.1834,373.2237 74.1834,374.5237 L74.1834,375.4467 L67.5474,375.4467 C67.5774,376.5777 67.8614,377.4357 68.4004,378.0217 C68.9454,378.6077 69.7104,378.9007 70.6944,378.9007 C71.7314,378.9007 72.7564,378.6837 73.7704,378.2507 L73.7704,379.5517 C73.2554,379.7737 72.7654,379.9327 72.3024,380.0257 C71.8454,380.1257 71.2924,380.1757 70.6414,380.1757 Z M60.1384,371.4127 C59.3654,371.4127 58.7474,371.6647 58.2844,372.1687 C57.8274,372.6727 57.5574,373.3697 57.4754,374.2607 L62.5114,374.2607 C62.5114,373.3407 62.3064,372.6377 61.8964,372.1507 C61.4864,371.6587 60.9004,371.4127 60.1384,371.4127 Z M60.5344,380.1757 C59.1104,380.1757 57.9854,379.7417 57.1594,378.8747 C56.3394,378.0077 55.9284,376.8037 55.9284,375.2627 C55.9284,373.7097 56.3094,372.4757 57.0714,371.5617 C57.8394,370.6477 58.8674,370.1907 60.1564,370.1907 C61.3634,370.1907 62.3184,370.5897 63.0214,371.3867 C63.7244,372.1777 64.0764,373.2237 64.0764,374.5237 L64.0764,375.4467 L57.4404,375.4467 C57.4694,376.5777 57.7544,377.4357 58.2934,378.0217 C58.8384,378.6077 59.6024,378.9007 60.5874,378.9007 C61.6244,378.9007 62.6494,378.6837 63.6634,378.2507 L63.6634,379.5517 C63.1474,379.7737 62.6584,379.9327 62.1954,380.0257 C61.7384,380.1257 61.1844,380.1757 60.5344,380.1757 Z M49.6974,371.4307 C48.7134,371.4307 48.0014,371.7027 47.5614,372.2477 C47.1224,372.7927 46.8964,373.6597 46.8844,374.8497 L46.8844,375.1747 C46.8844,376.5277 47.1104,377.4977 47.5614,378.0837 C48.0124,378.6637 48.7364,378.9537 49.7324,378.9537 C50.5644,378.9537 51.2144,378.6167 51.6834,377.9427 C52.1584,377.2687 52.3954,376.3407 52.3954,375.1567 C52.3954,373.9557 52.1584,373.0357 51.6834,372.3967 C51.2144,371.7527 50.5524,371.4307 49.6974,371.4307 Z M49.9084,380.1757 C49.2814,380.1757 48.7074,380.0607 48.1854,379.8327 C47.6704,379.5987 47.2364,379.2407 46.8844,378.7607 L46.7794,378.7607 C46.8494,379.3227 46.8844,379.8557 46.8844,380.3597 L46.8844,384.3237 L45.4254,384.3237 L45.4254,370.3667 L46.6124,370.3667 L46.8144,371.6847 L46.8844,371.6847 C47.2594,371.1577 47.6964,370.7767 48.1944,370.5427 C48.6924,370.3077 49.2634,370.1907 49.9084,370.1907 C51.1854,370.1907 52.1704,370.6277 52.8614,371.5007 C53.5584,372.3737 53.9074,373.5987 53.9074,375.1747 C53.9074,376.7567 53.5524,377.9867 52.8434,378.8657 C52.1404,379.7387 51.1624,380.1757 49.9084,380.1757 Z M43.0174,376.5807 C43.0174,377.7117 42.6074,378.5937 41.7874,379.2257 C40.9664,379.8587 39.8534,380.1757 38.4474,380.1757 C36.9234,380.1757 35.7524,379.9787 34.9314,379.5867 L34.9314,378.1447 C35.4594,378.3677 36.0334,378.5437 36.6544,378.6727 C37.2754,378.8017 37.8904,378.8657 38.5004,378.8657 C39.4964,378.8657 40.2464,378.6787 40.7504,378.3037 C41.2544,377.9227 41.5054,377.3947 41.5054,376.7217 C41.5054,376.2757 41.4154,375.9127 41.2334,375.6317 C41.0574,375.3447 40.7584,375.0807 40.3374,374.8407 C39.9214,374.5997 39.2854,374.3277 38.4294,374.0227 C37.2344,373.5957 36.3794,373.0887 35.8634,372.5027 C35.3534,371.9167 35.0984,371.1517 35.0984,370.2087 C35.0984,369.2187 35.4704,368.4307 36.2144,367.8447 C36.9594,367.2587 37.9434,366.9657 39.1684,366.9657 C40.4454,366.9657 41.6204,367.1997 42.6924,367.6687 L42.2264,368.9697 C41.1664,368.5237 40.1344,368.3017 39.1324,368.3017 C38.3414,368.3017 37.7234,368.4717 37.2784,368.8107 C36.8334,369.1507 36.6104,369.6227 36.6104,370.2257 C36.6104,370.6717 36.6924,371.0377 36.8564,371.3247 C37.0204,371.6057 37.2964,371.8667 37.6824,372.1067 C38.0754,372.3417 38.6724,372.6017 39.4754,372.8897 C40.8234,373.3697 41.7494,373.8857 42.2534,374.4357 C42.7624,374.9867 43.0174,375.7017 43.0174,376.5807 Z" id="Fill-36" fill="#1A1A1A" mask="url(#mask-4)"></path>
                    <path d="M560.9023,370.3668 L562.4663,370.3668 L564.5763,375.8598 C565.0393,377.1138 565.3263,378.0188 565.4373,378.5758 L565.5073,378.5758 C565.5843,378.2768 565.7423,377.7668 565.9823,377.0468 C566.2283,376.3198 567.0253,374.0938 568.3733,370.3668 L569.9373,370.3668 L565.7983,381.3358 C565.3873,382.4198 564.9073,383.1868 564.3563,383.6378 C563.8113,384.0958 563.1403,384.3238 562.3433,384.3238 C561.8983,384.3238 561.4593,384.2738 561.0253,384.1748 L561.0253,383.0058 C561.3473,383.0758 561.7083,383.1108 562.1063,383.1108 C563.1083,383.1108 563.8233,382.5488 564.2513,381.4238 L564.7873,380.0528 L560.9023,370.3668 Z M559.1793,378.9708 C559.4373,378.9708 559.6863,378.9538 559.9263,378.9188 C560.1673,378.8778 560.3573,378.8368 560.4983,378.7958 L560.4983,379.9118 C560.3403,379.9878 560.1053,380.0498 559.7953,380.0958 C559.4903,380.1488 559.2153,380.1758 558.9683,380.1758 C557.1053,380.1758 556.1733,379.1938 556.1733,377.2308 L556.1733,371.5008 L554.7943,371.5008 L554.7943,370.7978 L556.1733,370.1908 L556.7893,368.1348 L557.6323,368.1348 L557.6323,370.3668 L560.4273,370.3668 L560.4273,371.5008 L557.6323,371.5008 L557.6323,377.1698 C557.6323,377.7498 557.7703,378.1948 558.0463,378.5058 C558.3213,378.8158 558.6993,378.9708 559.1793,378.9708 Z M551.3923,367.7568 C551.3923,367.4228 551.4743,367.1788 551.6383,367.0268 C551.8023,366.8688 552.0073,366.7898 552.2543,366.7898 C552.4883,366.7898 552.6903,366.8688 552.8603,367.0268 C553.0303,367.1848 553.1153,367.4288 553.1153,367.7568 C553.1153,368.0848 553.0303,368.3308 552.8603,368.4948 C552.6903,368.6528 552.4883,368.7318 552.2543,368.7318 C552.0073,368.7318 551.8023,368.6528 551.6383,368.4948 C551.4743,368.3308 551.3923,368.0848 551.3923,367.7568 Z M551.5153,379.9998 L552.9743,379.9998 L552.9743,370.3668 L551.5153,370.3668 L551.5153,379.9998 Z M548.5623,370.1908 C548.9903,370.1908 549.3743,370.2258 549.7143,370.2968 L549.5113,371.6498 C549.1133,371.5618 548.7613,371.5178 548.4573,371.5178 C547.6773,371.5178 547.0093,371.8348 546.4533,372.4678 C545.9023,373.0998 545.6273,373.8878 545.6273,374.8318 L545.6273,379.9998 L544.1683,379.9998 L544.1683,370.3668 L545.3723,370.3668 L545.5393,372.1508 L545.6093,372.1508 C545.9663,371.5238 546.3973,371.0408 546.9013,370.7008 C547.4053,370.3608 547.9593,370.1908 548.5623,370.1908 Z M534.4823,370.3668 L534.4823,376.6158 C534.4823,377.4008 534.6613,377.9868 535.0183,378.3738 C535.3763,378.7608 535.9353,378.9538 536.6973,378.9538 C537.7053,378.9538 538.4403,378.6788 538.9033,378.1278 C539.3723,377.5768 539.6063,376.6778 539.6063,375.4288 L539.6063,370.3668 L541.0653,370.3668 L541.0653,379.9998 L539.8613,379.9998 L539.6503,378.7078 L539.5713,378.7078 C539.2723,379.1818 538.8563,379.5458 538.3233,379.7978 C537.7963,380.0498 537.1923,380.1758 536.5123,380.1758 C535.3403,380.1758 534.4623,379.8968 533.8763,379.3408 C533.2963,378.7838 533.0063,377.8928 533.0063,376.6688 L533.0063,370.3668 L534.4823,370.3668 Z M528.3823,380.1758 C526.9883,380.1758 525.9073,379.7478 525.1393,378.8918 C524.3783,378.0308 523.9973,376.8148 523.9973,375.2448 C523.9973,373.6338 524.3833,372.3878 525.1573,371.5098 C525.9363,370.6308 527.0443,370.1908 528.4793,370.1908 C528.9423,370.1908 529.4053,370.2408 529.8683,370.3408 C530.3313,370.4398 530.6943,370.5568 530.9583,370.6918 L530.5093,371.9308 C530.1873,371.8028 529.8363,371.6968 529.4553,371.6148 C529.0743,371.5268 528.7373,371.4828 528.4443,371.4828 C526.4873,371.4828 525.5083,372.7308 525.5083,375.2268 C525.5083,376.4108 525.7463,377.3188 526.2203,377.9518 C526.7013,378.5848 527.4103,378.9008 528.3473,378.9008 C529.1503,378.9008 529.9733,378.7278 530.8173,378.3828 L530.8173,379.6748 C530.1733,380.0088 529.3613,380.1758 528.3823,380.1758 Z M518.0993,371.4128 C517.3263,371.4128 516.7083,371.6648 516.2453,372.1688 C515.7883,372.6728 515.5183,373.3698 515.4363,374.2608 L520.4723,374.2608 C520.4723,373.3408 520.2673,372.6378 519.8573,372.1508 C519.4473,371.6588 518.8613,371.4128 518.0993,371.4128 Z M518.4953,380.1758 C517.0713,380.1758 515.9463,379.7418 515.1203,378.8748 C514.2993,378.0078 513.8893,376.8038 513.8893,375.2628 C513.8893,373.7098 514.2703,372.4758 515.0323,371.5618 C515.7993,370.6478 516.8283,370.1908 518.1173,370.1908 C519.3243,370.1908 520.2793,370.5898 520.9823,371.3868 C521.6853,372.1778 522.0373,373.2228 522.0373,374.5238 L522.0373,375.4468 L515.4013,375.4468 C515.4303,376.5778 515.7143,377.4358 516.2543,378.0218 C516.7983,378.6078 517.5633,378.9008 518.5483,378.9008 C519.5853,378.9008 520.6103,378.6838 521.6243,378.2508 L521.6243,379.5518 C521.1083,379.7738 520.6193,379.9318 520.1563,380.0258 C519.6993,380.1258 519.1453,380.1758 518.4953,380.1758 Z M512.0173,376.5808 C512.0173,377.7118 511.6073,378.5938 510.7873,379.2258 C509.9663,379.8588 508.8533,380.1758 507.4473,380.1758 C505.9233,380.1758 504.7523,379.9788 503.9313,379.5868 L503.9313,378.1448 C504.4593,378.3678 505.0333,378.5438 505.6543,378.6728 C506.2753,378.8018 506.8903,378.8658 507.5003,378.8658 C508.4963,378.8658 509.2463,378.6788 509.7503,378.3038 C510.2543,377.9228 510.5063,377.3948 510.5063,376.7208 C510.5063,376.2758 510.4153,375.9128 510.2333,375.6318 C510.0573,375.3448 509.7583,375.0808 509.3373,374.8408 C508.9213,374.5998 508.2853,374.3278 507.4293,374.0228 C506.2343,373.5958 505.3793,373.0888 504.8633,372.5028 C504.3533,371.9168 504.0983,371.1518 504.0983,370.2088 C504.0983,369.2188 504.4703,368.4298 505.2143,367.8448 C505.9593,367.2588 506.9433,366.9658 508.1683,366.9658 C509.4453,366.9658 510.6203,367.1998 511.6923,367.6688 L511.2263,368.9698 C510.1663,368.5238 509.1343,368.3018 508.1323,368.3018 C507.3413,368.3018 506.7233,368.4708 506.2783,368.8108 C505.8333,369.1508 505.6103,369.6228 505.6103,370.2258 C505.6103,370.6718 505.6923,371.0378 505.8563,371.3248 C506.0203,371.6058 506.2963,371.8668 506.6823,372.1068 C507.0753,372.3418 507.6733,372.6018 508.4753,372.8888 C509.8233,373.3698 510.7493,373.8858 511.2533,374.4358 C511.7623,374.9868 512.0173,375.7018 512.0173,376.5808 Z" id="Fill-37" fill="#1A1A1A" mask="url(#mask-4)"></path>
                    <path d="M332.127,567.3668 L333.691,567.3668 L335.801,572.8598 C336.264,574.1138 336.551,575.0188 336.662,575.5758 L336.732,575.5758 C336.809,575.2768 336.967,574.7668 337.207,574.0468 C337.453,573.3198 338.25,571.0938 339.598,567.3668 L341.162,567.3668 L337.023,578.3358 C336.612,579.4198 336.132,580.1868 335.581,580.6378 C335.036,581.0958 334.365,581.3238 333.568,581.3238 C333.123,581.3238 332.684,581.2738 332.25,581.1748 L332.25,580.0058 C332.572,580.0758 332.933,580.1108 333.331,580.1108 C334.333,580.1108 335.048,579.5488 335.476,578.4238 L336.012,577.0528 L332.127,567.3668 Z M330.404,575.9708 C330.662,575.9708 330.911,575.9538 331.151,575.9188 C331.392,575.8778 331.582,575.8368 331.723,575.7958 L331.723,576.9118 C331.565,576.9878 331.33,577.0498 331.02,577.0958 C330.715,577.1488 330.44,577.1758 330.193,577.1758 C328.33,577.1758 327.398,576.1938 327.398,574.2308 L327.398,568.5008 L326.019,568.5008 L326.019,567.7978 L327.398,567.1908 L328.014,565.1348 L328.857,565.1348 L328.857,567.3668 L331.652,567.3668 L331.652,568.5008 L328.857,568.5008 L328.857,574.1698 C328.857,574.7498 328.995,575.1948 329.271,575.5058 C329.546,575.8158 329.924,575.9708 330.404,575.9708 Z M322.617,564.7568 C322.617,564.4228 322.699,564.1788 322.863,564.0268 C323.027,563.8688 323.232,563.7898 323.479,563.7898 C323.713,563.7898 323.915,563.8688 324.085,564.0268 C324.255,564.1848 324.34,564.4288 324.34,564.7568 C324.34,565.0848 324.255,565.3308 324.085,565.4948 C323.915,565.6528 323.713,565.7318 323.479,565.7318 C323.232,565.7318 323.027,565.6528 322.863,565.4948 C322.699,565.3308 322.617,565.0848 322.617,564.7568 Z M322.74,576.9998 L324.199,576.9998 L324.199,567.3668 L322.74,567.3668 L322.74,576.9998 Z M318.188,576.9998 L319.647,576.9998 L319.647,563.3238 L318.188,563.3238 L318.188,576.9998 Z M313.512,564.7568 C313.512,564.4228 313.594,564.1788 313.758,564.0268 C313.922,563.8688 314.127,563.7898 314.373,563.7898 C314.607,563.7898 314.81,563.8688 314.98,564.0268 C315.149,564.1848 315.234,564.4288 315.234,564.7568 C315.234,565.0848 315.149,565.3308 314.98,565.4948 C314.81,565.6528 314.607,565.7318 314.373,565.7318 C314.127,565.7318 313.922,565.6528 313.758,565.4948 C313.594,565.3308 313.512,565.0848 313.512,564.7568 Z M313.635,576.9998 L315.094,576.9998 L315.094,567.3668 L313.635,567.3668 L313.635,576.9998 Z M306.867,568.4298 C305.871,568.4298 305.153,568.7178 304.714,569.2918 C304.274,569.8598 304.055,570.8208 304.055,572.1748 C304.055,573.5278 304.28,574.4978 304.731,575.0838 C305.183,575.6638 305.906,575.9538 306.902,575.9538 C307.799,575.9538 308.467,575.6288 308.906,574.9778 C309.346,574.3218 309.565,573.3818 309.565,572.1568 C309.565,570.9028 309.346,569.9688 308.906,569.3528 C308.467,568.7378 307.787,568.4298 306.867,568.4298 Z M307.078,567.2088 C308.344,567.2088 309.325,567.6418 310.023,568.5098 C310.726,569.3708 311.077,570.5928 311.077,572.1748 C311.077,573.7568 310.723,574.9868 310.014,575.8658 C309.311,576.7388 308.332,577.1758 307.078,577.1758 C306.451,577.1758 305.877,577.0608 305.356,576.8328 C304.84,576.5978 304.406,576.2408 304.055,575.7608 L303.949,575.7608 L303.642,576.9998 L302.596,576.9998 L302.596,563.3238 L304.055,563.3238 L304.055,566.6458 C304.055,567.3898 304.031,568.0578 303.984,568.6498 L304.055,568.6498 C304.734,567.6888 305.742,567.2088 307.078,567.2088 Z M295.204,575.9708 C296.112,575.9708 296.824,575.7218 297.34,575.2238 C297.861,574.7258 298.122,574.0288 298.122,573.1328 L298.122,572.2628 L296.663,572.3238 C295.503,572.3648 294.665,572.5468 294.149,572.8688 C293.64,573.1848 293.385,573.6798 293.385,574.3538 C293.385,574.8818 293.543,575.2828 293.859,575.5578 C294.182,575.8338 294.63,575.9708 295.204,575.9708 Z M298.5,576.9998 L298.21,575.6288 L298.14,575.6288 C297.659,576.2318 297.179,576.6418 296.698,576.8588 C296.224,577.0698 295.629,577.1758 294.914,577.1758 C293.959,577.1758 293.209,576.9298 292.664,576.4368 C292.125,575.9448 291.856,575.2448 291.856,574.3368 C291.856,572.3908 293.411,571.3718 296.523,571.2778 L298.157,571.2248 L298.157,570.6278 C298.157,569.8718 297.993,569.3148 297.665,568.9578 C297.343,568.5948 296.824,568.4128 296.109,568.4128 C295.307,568.4128 294.398,568.6588 293.385,569.1508 L292.937,568.0348 C293.411,567.7768 293.93,567.5748 294.492,567.4288 C295.061,567.2818 295.629,567.2088 296.197,567.2088 C297.346,567.2088 298.195,567.4638 298.746,567.9728 C299.303,568.4828 299.581,569.3008 299.581,570.4258 L299.581,576.9998 L298.5,576.9998 Z M288.023,576.9998 L289.482,576.9998 L289.482,563.3238 L288.023,563.3238 L288.023,576.9998 Z M280.632,575.9708 C281.54,575.9708 282.252,575.7218 282.768,575.2238 C283.289,574.7258 283.55,574.0288 283.55,573.1328 L283.55,572.2628 L282.091,572.3238 C280.931,572.3648 280.093,572.5468 279.577,572.8688 C279.067,573.1848 278.813,573.6798 278.813,574.3538 C278.813,574.8818 278.971,575.2828 279.287,575.5578 C279.609,575.8338 280.058,575.9708 280.632,575.9708 Z M283.928,576.9998 L283.638,575.6288 L283.567,575.6288 C283.087,576.2318 282.606,576.6418 282.126,576.8588 C281.651,577.0698 281.057,577.1758 280.342,577.1758 C279.387,577.1758 278.637,576.9298 278.092,576.4368 C277.553,575.9448 277.283,575.2448 277.283,574.3368 C277.283,572.3908 278.839,571.3718 281.95,571.2778 L283.585,571.2248 L283.585,570.6278 C283.585,569.8718 283.421,569.3148 283.093,568.9578 C282.771,568.5948 282.252,568.4128 281.537,568.4128 C280.734,568.4128 279.826,568.6588 278.813,569.1508 L278.364,568.0348 C278.839,567.7768 279.357,567.5748 279.92,567.4288 C280.488,567.2818 281.057,567.2088 281.625,567.2088 C282.773,567.2088 283.623,567.4638 284.174,567.9728 C284.731,568.4828 285.009,569.3008 285.009,570.4258 L285.009,576.9998 L283.928,576.9998 Z M273.275,577.1758 C271.881,577.1758 270.8,576.7478 270.032,575.8918 C269.271,575.0308 268.89,573.8148 268.89,572.2448 C268.89,570.6338 269.276,569.3878 270.05,568.5098 C270.829,567.6308 271.937,567.1908 273.372,567.1908 C273.835,567.1908 274.298,567.2408 274.761,567.3408 C275.224,567.4398 275.587,567.5568 275.851,567.6918 L275.402,568.9308 C275.08,568.8028 274.729,568.6968 274.348,568.6148 C273.967,568.5268 273.63,568.4828 273.337,568.4828 C271.38,568.4828 270.401,569.7308 270.401,572.2268 C270.401,573.4108 270.639,574.3188 271.113,574.9518 C271.594,575.5848 272.303,575.9008 273.24,575.9008 C274.043,575.9008 274.866,575.7278 275.71,575.3828 L275.71,576.6748 C275.065,577.0088 274.254,577.1758 273.275,577.1758 Z M267.018,573.5808 C267.018,574.7118 266.607,575.5938 265.787,576.2258 C264.967,576.8588 263.854,577.1758 262.447,577.1758 C260.924,577.1758 259.752,576.9788 258.932,576.5868 L258.932,575.1448 C259.459,575.3678 260.033,575.5438 260.654,575.6728 C261.275,575.8018 261.891,575.8658 262.5,575.8658 C263.496,575.8658 264.246,575.6788 264.75,575.3038 C265.254,574.9228 265.506,574.3948 265.506,573.7208 C265.506,573.2758 265.415,572.9128 265.233,572.6318 C265.058,572.3448 264.759,572.0808 264.337,571.8408 C263.921,571.5998 263.285,571.3278 262.43,571.0228 C261.234,570.5958 260.379,570.0888 259.863,569.5028 C259.354,568.9168 259.099,568.1518 259.099,567.2088 C259.099,566.2188 259.471,565.4298 260.215,564.8448 C260.959,564.2588 261.943,563.9658 263.168,563.9658 C264.445,563.9658 265.62,564.1998 266.692,564.6688 L266.227,565.9698 C265.166,565.5238 264.135,565.3018 263.133,565.3018 C262.342,565.3018 261.724,565.4708 261.278,565.8108 C260.833,566.1508 260.61,566.6228 260.61,567.2258 C260.61,567.6718 260.692,568.0378 260.856,568.3248 C261.021,568.6058 261.296,568.8668 261.683,569.1068 C262.075,569.3418 262.673,569.6018 263.476,569.8888 C264.823,570.3698 265.749,570.8858 266.253,571.4358 C266.763,571.9868 267.018,572.7018 267.018,573.5808 Z" id="Fill-38" fill="#1A1A1A" mask="url(#mask-4)"></path>
                </g>
                <g id="Oval-2">
                    <use fill="black" fill-opacity="1" filter="url(#filter-6)" xlink:href="#path-5"></use>
                    <use fill="#FFFFFF" fill-rule="evenodd" xlink:href="#path-5"></use>
                </g>
                <g id="Oval-2-Copy">
                    <use fill="black" fill-opacity="1" filter="url(#filter-8)" xlink:href="#path-7"></use>
                    <use fill="#FFFFFF" fill-rule="evenodd" xlink:href="#path-7"></use>
                </g>
                <g id="Oval-2-Copy-2">
                    <use fill="black" fill-opacity="1" filter="url(#filter-10)" xlink:href="#path-9"></use>
                    <use fill="#FFFFFF" fill-rule="evenodd" xlink:href="#path-9"></use>
                </g>
                <g id="Group-2-Copy" transform="translate(29.000000, 258.000000)">
                    <g id="Group" transform="translate(18.000000, 0.000000)"></g>
                    <path d="M32.5,8 C18.9906733,8 8,18.9906733 8,32.5 C8,46.0093267 18.9906733,57 32.5,57 C46.0093267,57 57,46.0093267 57,32.5 C57,18.9906733 46.0094541,8 32.5,8 Z M32.5,54.7405485 C20.2364986,54.7405485 10.2594515,44.7635014 10.2594515,32.5 C10.2594515,20.2364986 20.2364986,10.2594515 32.5,10.2594515 C44.7635014,10.2594515 54.7405485,20.2364986 54.7405485,32.5 C54.7405485,44.7635014 44.7635014,54.7405485 32.5,54.7405485 Z" id="Shape" fill="#010D28" fill-rule="nonzero"></path>
                    <path d="M32.8612333,63.6745427 C27.8328221,63.638234 22.8244569,62.3222095 18.3778935,59.8685578 C11.6670513,56.1657314 6.57733859,50.1063821 4.04625569,42.8069026 C1.53340807,35.5602475 1.72934035,27.675373 4.59796995,20.605018 C4.83890845,20.011103 4.5593008,19.3317249 3.97331457,19.0876574 C3.38732833,18.8434589 2.71714941,19.1269809 2.47621091,19.7207649 C-0.606715572,27.3194958 -0.817908581,35.7921247 1.88181834,43.5779042 C4.60159114,51.4214891 10.0703649,57.9321404 17.2809314,61.9108863 C22.0580577,64.5468677 27.4400523,65.9609387 32.8446792,66 C32.8476538,66 32.8503697,66 32.8530856,66 C33.4827848,66 33.9954419,65.4848629 33.9999684,64.8455948 C34.0046242,64.2033119 33.494683,63.6792615 32.8612333,63.6745427 Z" id="Shape" fill="#010D28" fill-rule="nonzero"></path>
                    <path d="M10.535495,10.3951599 C9.94400115,9.84255807 9.01583367,9.87326735 8.46237268,10.4638431 L8.39374815,10.5373142 C7.84144468,11.1288805 7.87418602,12.0556072 8.46667205,12.6068882 C8.74927283,12.8698983 9.10810473,13 9.46627518,13 C9.85900595,13 10.2509099,12.8434818 10.5392983,12.5340775 L10.6042849,12.4648991 C11.1577459,11.8743234 11.1268235,10.9477618 10.535495,10.3951599 Z" id="Shape" fill="#010D28" fill-rule="nonzero"></path>
                    <path d="M47.1199706,2.1832967 C47.0635591,2.15989011 47.0071475,2.13648352 46.9526428,2.11307692 L46.9338919,2.10532967 C46.766723,2.03510989 46.5900197,2 46.4114095,2 C45.8307675,2 45.3176606,2.36263736 45.1015486,2.92010989 C45.0357616,3.0917033 45.0019147,3.27302198 45.0000078,3.45615385 C44.9981009,4.06043956 45.3457869,4.59648352 45.8870202,4.82065934 L46.0599098,4.89285714 C46.2308925,4.96505495 46.4075958,5 46.5898608,5 C47.1668479,5 47.6797959,4.64131868 47.8959079,4.0878022 C48.0368574,3.72516484 48.0349505,3.32758242 47.8884393,2.9689011 C47.742087,2.60824176 47.4695635,2.32950549 47.1199706,2.1832967 Z" id="Shape" fill="#010D28" fill-rule="nonzero"></path>
                    <path d="M32.5719956,0.000175738366 L32.4746756,0.00220219024 C32.4390707,0.00220219024 32.4053647,0.00422864212 32.371817,0.00422864212 C32.0031085,0.0141920305 31.6568707,0.173943987 31.4005155,0.453594346 C31.1422613,0.735102286 31,1.10459201 31,1.49806142 C31,1.51005126 31,1.5220411 31,1.53605739 C31.0074375,1.9295268 31.1571363,2.29901652 31.4229861,2.57461398 C31.6867788,2.84818498 32.0349156,3 32.403624,3 C32.4129604,3 32.4241958,3 32.4335322,3 L32.43733,3 C32.4990452,2.99797355 32.5590196,2.9959471 32.6207348,2.9959471 C32.9949818,2.98801016 33.3450174,2.82623175 33.6050123,2.53864446 C33.8670643,2.25105716 34.0055278,1.87160405 33.999831,1.47222416 C33.9923935,1.07689717 33.8444354,0.705380991 33.5787438,0.429783536 C33.3092543,0.145911403 32.9519394,-0.00590361726 32.5719956,0.000175738366 Z" id="Shape" fill="#010D28" fill-rule="nonzero"></path>
                    <path d="M19.588955,3 C19.3913573,3 19.1994872,3.04274441 19.0189128,3.12445199 C18.9831162,3.14187856 18.9474786,3.15749671 18.9135911,3.17311486 C18.8871811,3.18478737 18.8609302,3.1984327 18.8345202,3.21010522 C18.1233596,3.53874397 17.8053261,4.40382508 18.1233596,5.13672731 C18.3510265,5.66166155 18.8571119,6 19.4121989,6 C19.6117057,6 19.805485,5.95528277 19.9879685,5.87160237 C19.9898777,5.87160237 19.9898777,5.87160237 19.9898777,5.86962955 C20.0463569,5.84431171 20.1009269,5.81915826 20.1574061,5.79384042 L20.1593153,5.7918676 C20.8704758,5.46717448 21.1940778,4.6039018 20.8798625,3.86902674 C20.6537866,3.34228409 20.1457921,3 19.588955,3 Z" id="Shape" fill="#010D28" fill-rule="nonzero"></path>
                    <path d="M54.5707374,54 C54.2030336,54 53.8524099,54.1412962 53.5855749,54.3953063 C53.5417469,54.4372914 53.4979189,54.4773388 53.454091,54.5194854 L53.4484514,54.5251373 C52.8748206,55.067553 52.8482338,55.9765314 53.3875434,56.5512434 C53.6619516,56.8415868 54.0296553,57 54.4279742,57 C54.7939056,57 55.1425957,56.8625794 55.4092696,56.6105071 L55.5578335,56.4692109 C55.8436821,56.1980838 55.9999804,55.8294219 55.9999804,55.4341156 C56.001914,55.0636775 55.8609232,54.7122941 55.6074622,54.444881 C55.3348265,54.1585747 54.9671227,54 54.5707374,54 Z" id="Shape" fill="#010D28" fill-rule="nonzero"></path>
                    <path d="M44.5112291,62 C44.3326236,62 44.1558645,62.031879 43.9871629,62.0958057 L43.9673551,62.1037333 C43.5941972,62.2433937 43.2984238,62.5206904 43.133583,62.8856966 C42.9687422,63.2486787 42.956824,63.6556842 43.095814,64.0306421 C43.3121885,64.6110424 43.8720093,65 44.489407,65 C44.6680125,65 44.8447715,64.968121 45.0134731,64.9041943 L45.0352952,64.8962667 C45.611063,64.6788485 45.9981535,64.1183515 46,63.5020241 C46,63.320533 45.968274,63.1408973 45.9046542,62.9693579 C45.6884475,62.3889576 45.1266123,62 44.5112291,62 Z" id="Shape" fill="#010D28" fill-rule="nonzero"></path>
                    <path d="M56.5595157,9.53591012 C56.517584,9.49397914 56.4756524,9.45204817 56.4335595,9.41189119 C56.164713,9.14675841 55.8079714,9 55.4304252,9 C55.0432025,9 54.6827515,9.15062896 54.4119698,9.42527685 C54.1468327,9.69234491 54.0018459,10.0469842 54.0000719,10.4227502 C53.9962013,10.8099667 54.148768,11.1741211 54.4253557,11.4487689 L54.5608272,11.582303 C54.8296736,11.851145 55.1883505,12 55.5697673,12 C55.9531194,12 56.3135704,11.8513063 56.5825781,11.5784324 C57.1394628,11.0196215 57.1394628,10.1137512 56.5806428,9.55671433 L56.5595157,9.53591012 Z" id="Shape" fill="#010D28" fill-rule="nonzero"></path>
                    <path d="M64.8786717,20.0262781 C64.8572457,19.9755762 64.8358198,19.9247152 64.8143938,19.8740132 C64.5862894,19.343947 64.0562435,19 63.4617548,19 C63.2707339,19 63.0836686,19.0357616 62.9063274,19.1071258 C62.3546906,19.3251921 61.9980304,19.8382517 62.0000082,20.4153642 C62.0000082,20.5976689 62.0370916,20.7763179 62.1091159,20.9473377 L62.1285641,20.9905695 C62.1460345,21.0338013 62.1656475,21.0770331 62.183118,21.1202649 C62.4092445,21.6541457 62.9392904,22 63.5377347,22 C63.7267778,22 63.9120302,21.9661457 64.0873936,21.8966887 C64.833842,21.6034437 65.1964356,20.7801325 64.8923514,20.0602914 L64.8786717,20.0262781 Z" id="Shape" fill="#010D28" fill-rule="nonzero"></path>
                    <path d="M64.5130935,32 L64.5010941,32 C63.6815886,32 63.0081035,32.623167 63.0021883,33.3904948 C63.0021883,33.4522101 63.0001602,33.5140838 63.0001602,33.5776981 C62.9881609,34.3505644 63.6516747,34.9887646 64.4791235,35 C64.4852077,35 64.4931509,35 64.4990661,35 C65.3145155,35 65.9861416,34.3787319 65.9979719,33.615202 L66,33.4150227 C66,33.4094841 66,33.4018884 66,33.3963498 C65.9961129,32.6326617 65.330571,32.0056968 64.5130935,32 Z" id="Shape" fill="#010D28" fill-rule="nonzero"></path>
                    <path d="M62.1227556,45.1184922 C61.9380639,45.0394444 61.7415309,45 61.5412152,45 C60.9596748,45 60.4345452,45.3328915 60.2031461,45.8482133 L60.1875221,45.882091 C60.166142,45.9272612 60.1467354,45.9741809 60.1253552,46.0193511 C59.9677999,46.3635352 59.9580966,46.7473227 60.1000279,47.0989821 C60.2401502,47.4506415 60.5143097,47.7272294 60.8702071,47.8795992 C61.0588459,47.958647 61.2553789,48 61.4594772,48 C62.0370705,48 62.5602265,47.6690171 62.7937637,47.159262 C62.8228736,47.0972325 62.8501744,47.0369526 62.8774752,46.9749231 C62.9592132,46.7944014 63,46.6043368 63,46.4106139 C62.9980264,45.8501219 62.655615,45.3422755 62.1227556,45.1184922 Z" id="Shape" fill="#010D28" fill-rule="nonzero"></path>
                    <path d="M45.9065397,62.9608407 C45.6238854,62.1945474 44.7851038,61.8071389 44.033545,62.0952719 L43.9477978,62.1278623 C43.1949274,62.4133212 42.8116062,63.2665224 43.0916372,64.0339857 C43.3095303,64.631143 43.8646738,65 44.4549032,65 C44.6234465,65 44.794613,64.9699165 44.9615168,64.906574 L45.0574291,64.8699725 C45.8091518,64.5818395 46.189194,63.726967 45.9065397,62.9608407 Z" id="Shape" fill="#000000" fill-rule="nonzero"></path>
                    <circle id="Oval-Copy-3" fill="#B2E6F1" cx="32.5" cy="32.5" r="12.5"></circle>
                    <path d="M43.6726386,44.0313926 L33.2244844,33.2496495 L33.2693499,18.1557806 C33.2712298,17.5194972 32.7750772,17.0020785 32.1612466,17 C32.160244,17 32.1589907,17 32.1578628,17 C31.5456614,17 31.0482556,17.5135215 31.0463757,18.1486358 L31.0000063,33.7232896 C30.9990038,34.0310388 31.1169324,34.3263169 31.3272239,34.5433911 L42.1040996,45.6643209 C42.3210332,45.8881503 42.6047638,46 42.8883691,46 C43.1737289,46 43.4589634,45.8867213 43.6762729,45.6606835 C44.1092629,45.209907 44.107759,44.4803505 43.6726386,44.0313926 Z" id="Shape" fill="#010D28" fill-rule="nonzero"></path>
                    <path d="M38.8869485,22.194029 C38.3186328,21.8299849 37.5613845,21.9930492 37.195112,22.5588974 C36.8289776,23.1246082 36.9932068,23.8786603 37.5615225,24.2429792 C40.686293,26.2457713 42.5518813,29.6470422 42.5518813,33.3410596 C42.5518813,34.3941774 42.4004868,35.4345193 42.1014241,36.4335113 C41.9084893,37.0784876 42.2772459,37.756846 42.9251921,37.9490338 C43.0416706,37.9836524 43.1593912,38 43.2750416,38 C43.8023691,38 44.2893983,37.6577985 44.4476931,37.129179 C44.8141036,35.9042049 45,34.6297758 45,33.3409223 C45.000138,28.8145489 42.7148684,24.6475489 38.8869485,22.194029 Z" id="Shape" fill="#010D28" fill-rule="nonzero"></path>
                    <path d="M35.9742287,43.3803455 C35.841597,42.7685356 35.2324739,42.378633 34.6127506,42.510091 C33.9127502,42.6585401 33.1907738,42.7337867 32.4672461,42.7337867 C26.8570306,42.7337867 22.2930022,38.2233338 22.2930022,32.6789745 C22.2930022,29.1522208 24.1118398,25.9447223 27.1588775,24.0993279 C27.6987116,23.7722798 27.8681854,23.0744921 27.5372526,22.5411226 C27.2064491,22.0076255 26.5005023,21.8401411 25.9605389,22.1671891 C22.2282376,24.427909 20,28.3577239 20,32.6789745 C20,39.4728874 25.592764,45 32.4673754,45 C33.352362,45 34.2359267,44.9076345 35.0937665,44.7258417 C35.7129728,44.5945115 36.1071189,43.9921553 35.9742287,43.3803455 Z" id="Shape" fill="#010D28" fill-rule="nonzero"></path>
                </g>
                <g id="Group-2-Copy" transform="translate(277.000000, 462.000000)">
                    <g id="Group">
                        <rect id="Rectangle-12-Copy-4" fill="#B2E6F1" x="1.37209302" y="28.505618" width="28.8139535" height="28.505618"></rect>
                        <path d="M9.82909068,0 L5.94997908,0 C5.31623219,0 4.80232558,0.445175832 4.80232558,0.994382022 C4.80232558,1.54358821 5.31611967,1.98876404 5.94997908,1.98876404 L9.82909068,1.98876404 C10.4628376,1.98876404 10.9767442,1.54358821 10.9767442,0.994382022 C10.9767442,0.445175832 10.4628376,0 9.82909068,0 Z" id="Shape" fill="#010D28" fill-rule="nonzero"></path>
                        <path d="M2.23917471,0 L1.19105783,0 C0.533342594,0 0,0.461658797 0,1.03119975 L0,3.60924969 C0,4.17879064 0.533342594,4.64044944 1.19105783,4.64044944 C1.84877307,4.64044944 2.38211566,4.17879064 2.38211566,3.60924969 L2.38211566,2.05511973 C2.97256457,1.99394944 3.43023254,1.55888203 3.43023254,1.03119975 C3.43034932,0.461658797 2.89700673,0 2.23917471,0 Z" id="Shape" fill="#010D28" fill-rule="nonzero"></path>
                        <path d="M1.02906977,7.29213483 C0.460806121,7.29213483 0,7.84376387 0,8.52442047 L0,12.6891835 C0,13.3697193 0.460806121,13.9213483 1.02906977,13.9213483 C1.59733341,13.9213483 2.05813953,13.3697193 2.05813953,12.6891835 L2.05813953,8.52442047 C2.05813953,7.84376387 1.59733341,7.29213483 1.02906977,7.29213483 Z" id="Shape" fill="#010D28" fill-rule="nonzero"></path>
                        <path d="M18.0616488,0 L14.1825372,0 C13.5487903,0 13.0348837,0.445175832 13.0348837,0.994382022 C13.0348837,1.54358821 13.5487903,1.98876404 14.1825372,1.98876404 L18.0616488,1.98876404 C18.6953957,1.98876404 19.2093023,1.54358821 19.2093023,0.994382022 C19.2093023,0.445175832 18.6953957,0 18.0616488,0 Z" id="Shape" fill="#010D28" fill-rule="nonzero"></path>
                        <path d="M33.8407186,0 L29.961607,0 C29.3278601,0 28.8139535,0.445175832 28.8139535,0.994382022 C28.8139535,1.54358821 29.3278601,1.98876404 29.961607,1.98876404 L33.8407186,1.98876404 C34.4744655,1.98876404 34.9883721,1.54358821 34.9883721,0.994382022 C34.9883721,0.445175832 34.4744655,0 33.8407186,0 Z" id="Shape" fill="#010D28" fill-rule="nonzero"></path>
                        <path d="M26.2942069,0 L22.4150954,0 C21.7813485,0 21.2674419,0.445175832 21.2674419,0.994382022 C21.2674419,1.54358821 21.7812359,1.98876404 22.4150954,1.98876404 L26.2942069,1.98876404 C26.9279538,1.98876404 27.4418604,1.54358821 27.4418604,0.994382022 C27.441973,0.445175832 26.9279538,0 26.2942069,0 Z" id="Shape" fill="#010D28" fill-rule="nonzero"></path>
                        <path d="M41.3872302,0 L37.5081186,0 C36.8743717,0 36.3604651,0.445175832 36.3604651,0.994382022 C36.3604651,1.54358821 36.8743717,1.98876404 37.5081186,1.98876404 L41.3872302,1.98876404 C42.0209771,1.98876404 42.5348837,1.54358821 42.5348837,0.994382022 C42.5348837,0.445175832 42.0209771,0 41.3872302,0 Z" id="Shape" fill="#010D28" fill-rule="nonzero"></path>
                        <path d="M49.6197884,0 L45.7406768,0 C45.1069299,0 44.5930233,0.445175832 44.5930233,0.994382022 C44.5930233,1.54358821 45.1068173,1.98876404 45.7406768,1.98876404 L49.6197884,1.98876404 C50.2535352,1.98876404 50.7674419,1.54358821 50.7674419,0.994382022 C50.7674419,0.445175832 50.2535352,0 49.6197884,0 Z" id="Shape" fill="#010D28" fill-rule="nonzero"></path>
                        <path d="M50.9918814,56.3483146 L47.1127698,56.3483146 C46.4790229,56.3483146 45.9651163,56.7934904 45.9651163,57.3426966 C45.9651163,57.8919028 46.4790229,58.3370787 47.1127698,58.3370787 L50.9918814,58.3370787 C51.6256283,58.3370787 52.1395349,57.8919028 52.1395349,57.3426966 C52.1395349,56.7934904 51.6256283,56.3483146 50.9918814,56.3483146 Z" id="Shape" fill="#010D28" fill-rule="nonzero"></path>
                        <path d="M57.2848837,7.95505618 C56.7166201,7.95505618 56.255814,8.50669527 56.255814,9.18724346 L56.255814,13.3520824 C56.255814,14.0326306 56.7166201,14.5842697 57.2848837,14.5842697 C57.8531474,14.5842697 58.3139535,14.0326306 58.3139535,13.3520824 L58.3139535,9.18724346 C58.3139535,8.50669527 57.8531474,7.95505618 57.2848837,7.95505618 Z" id="Shape" fill="#010D28" fill-rule="nonzero"></path>
                        <path d="M57.2848837,15.247191 C56.7166201,15.247191 56.255814,15.7988301 56.255814,16.4793783 L56.255814,20.6442172 C56.255814,21.3247654 56.7166201,21.8764045 57.2848837,21.8764045 C57.8531474,21.8764045 58.3139535,21.3247654 58.3139535,20.6442172 L58.3139535,16.4793783 C58.3139535,15.7988301 57.8531474,15.247191 57.2848837,15.247191 Z" id="Shape" fill="#010D28" fill-rule="nonzero"></path>
                        <path d="M57.2848837,32.4831461 C56.7166201,32.4831461 56.255814,33.0347852 56.255814,33.7153333 L56.255814,37.8801723 C56.255814,38.5607205 56.7166201,39.1123596 57.2848837,39.1123596 C57.8531474,39.1123596 58.3139535,38.5607205 58.3139535,37.8801723 L58.3139535,33.7153333 C58.3139535,33.034906 57.8531474,32.4831461 57.2848837,32.4831461 Z" id="Shape" fill="#010D28" fill-rule="nonzero"></path>
                        <path d="M59,1.20093338 C59,0.537647004 58.4860934,0 57.8523465,0 L53.9732349,0 C53.339488,0 52.8255814,0.537647004 52.8255814,1.20093338 C52.8255814,1.86421975 53.339488,2.40186675 53.9732349,2.40186675 L56.704693,2.40186675 L56.704693,5.42828009 C56.704693,6.09156646 57.2185996,6.62921346 57.8523465,6.62921346 C58.4860934,6.62933121 59,6.09156646 59,5.42828009 L59,1.36908053 C59,1.34082051 58.9990998,1.31279598 58.9972994,1.28500695 C58.9990998,1.25733568 59,1.2291934 59,1.20093338 Z" id="Shape" fill="#010D28" fill-rule="nonzero"></path>
                        <path d="M57.2848837,39.7752809 C56.7166201,39.7752809 56.255814,40.32692 56.255814,41.0074682 L56.255814,45.1723071 C56.255814,45.8528553 56.7166201,46.4044944 57.2848837,46.4044944 C57.8531474,46.4044944 58.3139535,45.8528553 58.3139535,45.1723071 L58.3139535,41.0074682 C58.3139535,40.32692 57.8531474,39.7752809 57.2848837,39.7752809 Z" id="Shape" fill="#010D28" fill-rule="nonzero"></path>
                        <path d="M57.2848837,24.5280899 C56.7166201,24.5280899 56.255814,25.079729 56.255814,25.7602772 L56.255814,29.9251161 C56.255814,30.6056643 56.7166201,31.1573034 57.2848837,31.1573034 C57.8531474,31.1573034 58.3139535,30.6056643 58.3139535,29.9251161 L58.3139535,25.7602772 C58.3139535,25.079729 57.8531474,24.5280899 57.2848837,24.5280899 Z" id="Shape" fill="#010D28" fill-rule="nonzero"></path>
                        <path d="M57.9649067,55.6853933 C57.4864297,55.6853933 57.0835552,56.0650696 56.9652298,56.5805565 L55.2326663,56.5805565 C54.6611324,56.5805565 54.1976744,57.122138 54.1976744,57.7902783 C54.1976744,58.4584185 54.6611324,59 55.2326663,59 L57.9650082,59 C58.536542,59 59,58.4584185 59,57.7902783 L59,56.895115 C58.9998985,56.2269747 58.5364406,55.6853933 57.9649067,55.6853933 Z" id="Shape" fill="#010D28" fill-rule="nonzero"></path>
                        <path d="M57.2848837,47.7303371 C56.7166201,47.7303371 56.255814,48.2819762 56.255814,48.9625244 L56.255814,53.1273633 C56.255814,53.8079115 56.7166201,54.3595506 57.2848837,54.3595506 C57.8531474,54.3595506 58.3139535,53.8079115 58.3139535,53.1273633 L58.3139535,48.9625244 C58.3139535,48.2819762 57.8531474,47.7303371 57.2848837,47.7303371 Z" id="Shape" fill="#010D28" fill-rule="nonzero"></path>
                        <path d="M21.466207,52.3707865 L5.28960689,52.3707865 C4.64168236,52.3707865 4.11627907,52.8159623 4.11627907,53.3651685 C4.11627907,53.9143747 4.64168236,54.3595506 5.28960689,54.3595506 L21.466207,54.3595506 C22.1141316,54.3595506 22.6395349,53.9143747 22.6395349,53.3651685 C22.6396499,52.8159623 22.1142466,52.3707865 21.466207,52.3707865 Z" id="Shape" fill="#010D28" fill-rule="nonzero"></path>
                        <path d="M26.9264185,52.3707865 L25.8991629,52.3707865 C25.2356877,52.3707865 24.6976744,52.8159623 24.6976744,53.3651685 C24.6976744,53.9143747 25.2356877,54.3595506 25.8991629,54.3595506 L26.9264185,54.3595506 C27.5898936,54.3595506 28.127907,53.9143747 28.127907,53.3651685 C28.127907,52.8159623 27.5900115,52.3707865 26.9264185,52.3707865 Z" id="Shape" fill="#010D28" fill-rule="nonzero"></path>
                        <path d="M50.9688208,7.29213483 L44.9629278,7.29213483 C44.3164466,7.29213483 43.7922137,7.81191255 43.7922137,8.45315387 C43.7922137,9.09439519 44.3164466,9.61417291 44.9629278,9.61417291 L48.1423021,9.61417291 L40.4740618,17.2189102 L2.34142816,17.2189102 L2.34142816,16.5522833 C2.34142816,15.911042 1.81719528,15.3912643 1.17071408,15.3912643 C0.524232887,15.3912643 0,15.911042 0,16.5522833 L0,57.838981 C0,58.4802223 0.524232887,59 1.17071408,59 L42.6382586,59 C43.2847398,59 43.8089727,58.4802223 43.8089727,57.838981 C43.8089727,57.1977396 43.2847398,56.6779619 42.6382586,56.6779619 L42.1298663,56.6779619 L42.1298663,18.8610025 L49.7981067,11.2562652 L49.7981067,14.4093102 C49.7981067,15.0505515 50.3223396,15.5703292 50.9688208,15.5703292 C51.615302,15.5703292 52.1395349,15.0505515 52.1395349,14.4093102 L52.1395349,8.45326771 C52.1396497,7.81202638 51.615302,7.29213483 50.9688208,7.29213483 Z M39.7884382,56.6779619 L2.34142816,56.6779619 L2.34142816,19.5410621 L39.7884382,19.5410621 L39.7884382,56.6779619 Z" id="Shape" fill="#010D28" fill-rule="nonzero"></path>
                    </g>
                </g>
                <g id="Group-2-Copy" transform="translate(518.000000, 258.000000)">
                    <g id="Group">
                        <rect id="Rectangle-12-Copy-5" fill="#B2E6F1" x="21.12" y="27.3982301" width="23.04" height="19.7522124"></rect>
                        <path d="M39.4763636,19.3699115 C39.4763636,15.3639717 36.2667345,12.1061947 32.32,12.1061947 C28.3732655,12.1061947 25.1636364,15.3639717 25.1636364,19.3699115 L25.1636364,25.4230088 L19.2,25.4230088 L19.2,48.4247788 L45.44,48.4247788 L45.44,25.4230088 L39.4763636,25.4230088 L39.4763636,19.3699115 Z M27.5490909,19.3699115 C27.5490909,16.699285 29.6888436,14.5274336 32.32,14.5274336 C34.9511564,14.5274336 37.0909091,16.699285 37.0909091,19.3699115 L37.0909091,25.4230088 L27.5490909,25.4230088 L27.5490909,19.3699115 Z M43.0545455,27.8442478 L43.0545455,46.0035398 L21.5854545,46.0035398 L21.5854545,27.8442478 L25.1636364,27.8442478 L39.4763636,27.8442478 L43.0545455,27.8442478 Z" id="Shape" fill="#010D28" fill-rule="nonzero"></path>
                        <path d="M31.12,40.1426356 L31.12,42.7481899 C31.12,43.4208656 31.6576,43.9646018 32.32,43.9646018 C32.9824,43.9646018 33.52,43.4208656 33.52,42.7481899 L33.52,40.1426356 C35.584,39.5988994 37.12,37.7110282 37.12,35.4497184 C37.12,32.7663138 34.9672,30.5840708 32.32,30.5840708 C29.6728,30.5840708 27.52,32.7663138 27.52,35.4497184 C27.52,37.7110282 29.056,39.5988994 31.12,40.1426356 Z M32.32,33.0168946 C33.6436,33.0168946 34.72,34.1080161 34.72,35.4497184 C34.72,36.7914208 33.6436,37.8825422 32.32,37.8825422 C30.9964,37.8825422 29.92,36.7914208 29.92,35.4497184 C29.92,34.1080161 30.9964,33.0168946 32.32,33.0168946 Z" id="Shape" fill="#010D28" fill-rule="nonzero"></path>
                        <path d="M32,0 C14.354963,0 0,14.5344 0,32.4 C0,49.3308 12.896,63.2628 29.2634074,64.674 L24.050963,69.9516 C23.5875556,70.4208 23.5875556,71.1792 24.050963,71.6484 C24.2820741,71.8824 24.5854815,72 24.8888889,72 C25.1922963,72 25.4957037,71.8824 25.7268148,71.6484 L32.8367407,64.4496 C32.946963,64.3392 33.0334815,64.206 33.0939259,64.0584 C33.2136296,63.7656 33.2136296,63.4344 33.0939259,63.1416 C33.0334815,62.994 32.946963,62.862 32.8367407,62.7504 L25.7268148,55.5516 C25.2634074,55.0824 24.5143704,55.0824 24.050963,55.5516 C23.5875556,56.0208 23.5875556,56.7792 24.050963,57.2484 L28.9860741,62.2452 C14.0586667,60.7116 2.37037037,47.9124 2.37037037,32.4 C2.37037037,15.858 15.6622222,2.4 32,2.4 C48.3377778,2.4 61.6296296,15.858 61.6296296,32.4 C61.6296296,40.3596 58.5837037,47.8572 53.0512593,53.5116 C52.5902222,53.9832 52.5937778,54.7428 53.0595556,55.2096 C53.5241481,55.674 54.2743704,55.6716 54.7354074,55.2012 C60.7099259,49.0932 64,40.9956 64,32.4 C64,14.5344 49.645037,0 32,0 Z" id="Shape" fill="#010D28" fill-rule="nonzero"></path>
                    </g>
                </g>
            </g>
        </g>
    </g>
</svg>