<svg xmlns="http://www.w3.org/2000/svg" viewBox="0 0 199.77 65.25"><defs><style>.cls-1{fill:#1d1d1b}.cls-2{fill:#ed1e79}</style></defs><title>Blockchain Summit - Crypto Valley</title><path class="cls-1" d="M16.12 61.21a.31.31 0 0 0-.14 0l-.14.09a9.54 9.54 0 0 1-1.16.91 6.75 6.75 0 0 1-1.27.66 7.32 7.32 0 0 1-1.49.4 11.39 11.39 0 0 1-1.84.13 7.88 7.88 0 0 1-3-.58 7 7 0 0 1-2.44-1.67A7.81 7.81 0 0 1 3 58.51a11.11 11.11 0 0 1 0-7.14 7.74 7.74 0 0 1 1.6-2.68A7 7 0 0 1 7.09 47a8.39 8.39 0 0 1 3.19-.59 8.11 8.11 0 0 1 2.33.29 8.74 8.74 0 0 1 1.63.65 7.05 7.05 0 0 1 1 .65 1.1 1.1 0 0 0 .53.29.38.38 0 0 0 .34-.16l.42-.6a9.45 9.45 0 0 0-2.78-1.7 9.46 9.46 0 0 0-3.5-.6 9.88 9.88 0 0 0-3.78.7 8.45 8.45 0 0 0-2.94 2A9 9 0 0 0 1.65 51 11 11 0 0 0 1 54.92a11.49 11.49 0 0 0 .66 4A8.81 8.81 0 0 0 3.49 62a8.21 8.21 0 0 0 2.86 2 9.5 9.5 0 0 0 3.67.69 11.55 11.55 0 0 0 2.2-.19 9.17 9.17 0 0 0 1.84-.55 8 8 0 0 0 1.53-.95 9.13 9.13 0 0 0 1.3-1.13l-.54-.58a.32.32 0 0 0-.23-.08zm10.57-5.54a8.29 8.29 0 0 0 2.31-.58A5.73 5.73 0 0 0 30.7 54a4.65 4.65 0 0 0 1.1-1.57 5 5 0 0 0 .38-2 4.39 4.39 0 0 0-1.65-3.72 8.12 8.12 0 0 0-5-1.27h-4.91V64.4H22v-8.57h2.52a3.67 3.67 0 0 1 .48 0 1.34 1.34 0 0 1 .34.09.88.88 0 0 1 .26.17 1.82 1.82 0 0 1 .22.25L32 64a.76.76 0 0 0 .29.27.91.91 0 0 0 .39.07h1.2l-6.61-8.14a2.19 2.19 0 0 0-.58-.53zm-1.33-.86H22v-8.28h3.52a6.59 6.59 0 0 1 3.91 1 3.47 3.47 0 0 1 1.34 3 4.17 4.17 0 0 1-.37 1.78 3.74 3.74 0 0 1-1.07 1.35 5 5 0 0 1-1.71.86 8 8 0 0 1-2.26.29zm22.19-9.27a.61.61 0 0 0-.2.24l-5.51 8.7q-.18.31-.31.6t-.24.57a5.69 5.69 0 0 0-.26-.57l-.33-.6-5.51-8.7a.67.67 0 0 0-.2-.25.53.53 0 0 0-.31-.09h-1.23l7.13 11.14v7.82H42v-7.81l7.1-11.14h-1.23a.53.53 0 0 0-.32.09zm9.64-.09h-5V64.4h1.4v-7.64h3.58a9 9 0 0 0 2.83-.42 6.36 6.36 0 0 0 2.15-1.18 5.17 5.17 0 0 0 1.36-1.8 5.45 5.45 0 0 0 .49-2.29 5.16 5.16 0 0 0-1.72-4.16 7.73 7.73 0 0 0-5.09-1.46zm5.05 7.45a4.2 4.2 0 0 1-1.07 1.45 5.05 5.05 0 0 1-1.71 1 6.93 6.93 0 0 1-2.27.35h-3.58v-9.17h3.58a6.07 6.07 0 0 1 4.07 1.18 4.21 4.21 0 0 1 1.36 3.36 4.43 4.43 0 0 1-.37 1.83zm18.22-7.45H65.49v1.17h6.8V64.4h1.41V46.62h6.76v-1.17zm17.41 5.5A8.87 8.87 0 0 0 96 47.89a8.25 8.25 0 0 0-2.9-2 9.82 9.82 0 0 0-3.73-.69 9.68 9.68 0 0 0-3.73.7 8.39 8.39 0 0 0-2.9 2 8.8 8.8 0 0 0-1.88 3.05 12.19 12.19 0 0 0 0 8A8.8 8.8 0 0 0 82.73 62a8.31 8.31 0 0 0 2.9 2 10.44 10.44 0 0 0 7.46 0A8.3 8.3 0 0 0 96 62a8.8 8.8 0 0 0 1.88-3.05 12.19 12.19 0 0 0 0-8zm-1.33 7.54A7.59 7.59 0 0 1 95 61.16a6.73 6.73 0 0 1-2.45 1.67 8.9 8.9 0 0 1-6.3 0 6.8 6.8 0 0 1-2.46-1.67 7.62 7.62 0 0 1-1.59-2.67 11.54 11.54 0 0 1 0-7.13 7.61 7.61 0 0 1 1.59-2.68A6.87 6.87 0 0 1 86.21 47a8.81 8.81 0 0 1 6.3 0A6.81 6.81 0 0 1 95 48.68a7.59 7.59 0 0 1 1.58 2.68 11.67 11.67 0 0 1 0 7.13zM123 45.45a.51.51 0 0 0-.33.11.58.58 0 0 0-.19.25l-6.54 15.72a5.7 5.7 0 0 0-.22.63q-.1.33-.18.68-.1-.35-.2-.68t-.22-.63l-6.56-15.72a.67.67 0 0 0-.19-.26.48.48 0 0 0-.31-.1h-1.1l7.95 18.95h1.24l7.95-18.95zm7 0l-7.92 18.95h1.06a.51.51 0 0 0 .33-.11.58.58 0 0 0 .19-.25l2.26-5.5h9.46l2.26 5.5a.67.67 0 0 0 .19.26.48.48 0 0 0 .31.1h1.07l-7.88-18.95zm-3.62 12.06l3.87-9.51a5.43 5.43 0 0 0 .2-.53q.1-.29.18-.61a9.45 9.45 0 0 0 .39 1.12l3.92 9.57zm17.42-12.06h-1.4V64.4h10.52v-1.17h-9.12V45.45zm13.77 0h-1.4V64.4h10.52v-1.17h-9.12V45.45zm13.77 9.91h8.44v-1.11h-8.44v-7.66h10.14v-1.14h-11.54V64.4h11.54l.02-1.14h-10.16v-7.9zm26.23-9.91a.53.53 0 0 0-.32.09.61.61 0 0 0-.2.24l-5.51 8.7q-.18.31-.31.6t-.24.57a5.69 5.69 0 0 0-.26-.57l-.33-.6-5.51-8.7a.67.67 0 0 0-.2-.25.53.53 0 0 0-.31-.09h-1.22l7.13 11.14v7.82h1.39v-7.81l7.13-11.14z"/><path class="cls-2" d="M67 15.36a.73.73 0 0 0-.33.07 1.27 1.27 0 0 0-.29.19 6 6 0 0 1-.9.68 5 5 0 0 1-1 .45 5.84 5.84 0 0 1-1.12.25 10.35 10.35 0 0 1-1.35.08 5.93 5.93 0 0 1-2.34-.46 5.43 5.43 0 0 1-1.89-1.33 6.36 6.36 0 0 1-1.27-2.14 8.36 8.36 0 0 1-.51-2.91 8.14 8.14 0 0 1 .47-2.85 6.23 6.23 0 0 1 1.31-2.15 5.67 5.67 0 0 1 2-1.36 7.46 7.46 0 0 1 4.5-.23 6.83 6.83 0 0 1 1.27.52 8 8 0 0 1 .83.52 1.08 1.08 0 0 0 .64.24.8.8 0 0 0 .47-.12 1.1 1.1 0 0 0 .28-.28L69 2.86A9 9 0 0 0 66.23 1 9.82 9.82 0 0 0 62.4.35a11.12 11.12 0 0 0-4.1.73 9.38 9.38 0 0 0-3.19 2A9.14 9.14 0 0 0 53 6.24a10.56 10.56 0 0 0-.73 4 11.58 11.58 0 0 0 .66 4 9 9 0 0 0 1.9 3.13 8.68 8.68 0 0 0 3 2 10.06 10.06 0 0 0 3.94.74 10.3 10.3 0 0 0 4.2-.78 7.91 7.91 0 0 0 2.95-2.24l-1.44-1.54a.69.69 0 0 0-.48-.19zM47.82 3.16a9.33 9.33 0 0 0-3.15-2.06 10.66 10.66 0 0 0-4.06-.75 10.81 10.81 0 0 0-4.07.74 9.1 9.1 0 0 0-5.2 5.21 10.58 10.58 0 0 0-.72 3.94 10.58 10.58 0 0 0 .72 3.94 9.1 9.1 0 0 0 5.19 5.21 11.52 11.52 0 0 0 8.14 0 9.19 9.19 0 0 0 3.14-2.07 9.33 9.33 0 0 0 2-3.14 10.58 10.58 0 0 0 .72-3.94 10.58 10.58 0 0 0-.72-3.94 9.25 9.25 0 0 0-1.99-3.14zm-1.44 9.94a6 6 0 0 1-1.23 2.14 5.35 5.35 0 0 1-2 1.35 7.42 7.42 0 0 1-5.19 0 5.4 5.4 0 0 1-2-1.35 6 6 0 0 1-1.16-2.14 8.75 8.75 0 0 1-.44-2.86 8.75 8.75 0 0 1 .44-2.86A6.05 6.05 0 0 1 36 5.23a5.35 5.35 0 0 1 2-1.35 7.42 7.42 0 0 1 5.19 0 5.3 5.3 0 0 1 2 1.35 6 6 0 0 1 1.23 2.15 8.88 8.88 0 0 1 .43 2.86 8.88 8.88 0 0 1-.47 2.86zM22.38.56h-3.67v19.36h11.54v-2.97h-7.87V.56zM11.52 9.92a6.64 6.64 0 0 0 1.57-.75 4.71 4.71 0 0 0 1.09-1A3.76 3.76 0 0 0 14.81 7 4.17 4.17 0 0 0 15 5.72a5.38 5.38 0 0 0-.41-2.14A4 4 0 0 0 13.32 2a6.33 6.33 0 0 0-2.24-1 13.06 13.06 0 0 0-3.3-.44H1v19.36h7.42a10 10 0 0 0 3-.43 6.67 6.67 0 0 0 2.24-1.19 5 5 0 0 0 1.39-1.8 5.42 5.42 0 0 0 .48-2.28q.04-3.4-4.01-4.3zM4.65 3.35h3.13A4.61 4.61 0 0 1 10.5 4a2.5 2.5 0 0 1 .87 2.16 2.41 2.41 0 0 1-1 2.13 5 5 0 0 1-2.83.67H4.65zm7.12 11.94a2.35 2.35 0 0 1-.6.94 3 3 0 0 1-1.1.64 5.21 5.21 0 0 1-1.71.24H4.65v-5.68h3.7a6.26 6.26 0 0 1 1.65.19 3 3 0 0 1 1.12.54 2.12 2.12 0 0 1 .64.86 3 3 0 0 1 .2 1.13 3.48 3.48 0 0 1-.19 1.14zM167.54.56v12.61q0 .45.07.92l-10.3-12.95a2.79 2.79 0 0 0-.27-.3 1 1 0 0 0-.25-.17 1 1 0 0 0-.29-.08h-2.33v19.33h3.22V7.23q0-.42-.06-.85l10.29 12.89a1.6 1.6 0 0 0 .56.48 1.7 1.7 0 0 0 .72.13h1.89V.56zm-21.47 0h3.67v19.36h-3.67zm-13.94 0l-7.73 19.36h2.84a1.22 1.22 0 0 0 .78-.25 1.27 1.27 0 0 0 .43-.56l1.47-4h8.15l1.47 4a1.33 1.33 0 0 0 .44.58 1.25 1.25 0 0 0 .78.23h2.83L135.87.56zm-1.27 12.05l2.39-6.41q.18-.44.36-1t.39-1.31q.19.68.39 1.27t.36 1l2.39 6.44zm-39-7.36a5.67 5.67 0 0 1 2-1.36 7.46 7.46 0 0 1 4.5-.23 6.83 6.83 0 0 1 1.27.52 8 8 0 0 1 .83.52 1.08 1.08 0 0 0 .64.24.8.8 0 0 0 .47-.12 1.1 1.1 0 0 0 .28-.28l1.22-1.67a9 9 0 0 0-2.8-1.87 9.82 9.82 0 0 0-3.83-.65 11.12 11.12 0 0 0-4.1.73 9.38 9.38 0 0 0-3.19 2 9.14 9.14 0 0 0-2.07 3.13 10.56 10.56 0 0 0-.73 4 11.59 11.59 0 0 0 .66 4 9 9 0 0 0 1.9 3.13 8.68 8.68 0 0 0 3 2 10.06 10.06 0 0 0 3.94.74 10.3 10.3 0 0 0 4.2-.78 7.91 7.91 0 0 0 2.95-2.18l-1.44-1.54a.69.69 0 0 0-.52-.23.73.73 0 0 0-.33.07 1.27 1.27 0 0 0-.29.19 6 6 0 0 1-.9.68 5 5 0 0 1-1 .45 5.84 5.84 0 0 1-1.12.25 10.35 10.35 0 0 1-1.35.08 5.93 5.93 0 0 1-2.34-.46 5.43 5.43 0 0 1-1.89-1.33 6.36 6.36 0 0 1-1.27-2.14 8.36 8.36 0 0 1-.47-2.91 8.14 8.14 0 0 1 .47-2.85 6.23 6.23 0 0 1 1.31-2.13zm26.43 4.2h-9.22V1.13h-3.69v19.36h3.69v-8.47h9.22v8.47h3.69V1.13h-3.69v8.32zM78.35 10.7a2.72 2.72 0 0 0-.81-.46h-.05a2.72 2.72 0 0 0 .81-.46A4.25 4.25 0 0 0 79 9L85.68.56h-3.24a2 2 0 0 0-1 .18 1.51 1.51 0 0 0-.54.53l-5.54 6.95a1.65 1.65 0 0 1-.61.5 2.42 2.42 0 0 1-1 .15H69v2.73h4.8a2.42 2.42 0 0 1 1 .15 1.64 1.64 0 0 1 .61.5l5.57 6.95a1.51 1.51 0 0 0 .54.53 2 2 0 0 0 1 .18h3.29L79 11.45a4.26 4.26 0 0 0-.65-.75zM55 22.9a1.16 1.16 0 0 0-.32.07.69.69 0 0 0-.26.17 1.5 1.5 0 0 0-.22.32l-5.84 10.73q-.23.43-.44.9t-.39 1l-.39-.93q-.2-.46-.43-.89l-5.87-10.81a1.36 1.36 0 0 0-.23-.32.75.75 0 0 0-.27-.17 1.16 1.16 0 0 0-.34-.07h-3.16v19.35h3.22V28.96q0-.42-.06-.87l6 11a1.55 1.55 0 0 0 .53.58 1.39 1.39 0 0 0 .76.21h.5a1.39 1.39 0 0 0 .76-.21 1.55 1.55 0 0 0 .53-.58l5.95-11q0 .43-.06.84t0 .76v12.56h3.22V22.88H55zm25.29 0a1.15 1.15 0 0 0-.29.1.69.69 0 0 0-.26.17 1.45 1.45 0 0 0-.22.32l-5.85 10.7q-.23.43-.44.9t-.39 1l-.39-.93q-.2-.46-.43-.89l-5.88-10.81a1.36 1.36 0 0 0-.23-.32.75.75 0 0 0-.27-.17 1.16 1.16 0 0 0-.32-.07h-3.18v19.35h3.22V28.96q0-.42-.07-.86l6 11a1.55 1.55 0 0 0 .53.58 1.39 1.39 0 0 0 .76.21h.5a1.39 1.39 0 0 0 .76-.21 1.55 1.55 0 0 0 .53-.58l5.95-11q0 .43-.06.84t0 .76v12.55h3.22V22.88h-3.19zm7.61-.02h3.67v19.36H87.9zm6.48.25v2.95h5.95v16.41h3.66V26.08h5.92v-2.95H94.38zm-82 9.48a5.79 5.79 0 0 0-1.46-1A16.28 16.28 0 0 0 9.26 31l-1.67-.54a9.61 9.61 0 0 1-1.46-.58 3.23 3.23 0 0 1-1-.78 1.69 1.69 0 0 1-.39-1.14 2.49 2.49 0 0 1 .19-1 2 2 0 0 1 .58-.77 2.82 2.82 0 0 1 1-.5 4.36 4.36 0 0 1 1.33-.18 4.61 4.61 0 0 1 1.46.21 6.63 6.63 0 0 1 1.08.46l.8.46a1.2 1.2 0 0 0 .61.21.88.88 0 0 0 .47-.12 1 1 0 0 0 .35-.42l.9-1.7a7.27 7.27 0 0 0-2.5-1.5 9.32 9.32 0 0 0-3.21-.54A7.45 7.45 0 0 0 5 23a6.21 6.21 0 0 0-2 1.25 5.27 5.27 0 0 0-1.25 1.78 5.21 5.21 0 0 0-.43 2.06 5.66 5.66 0 0 0 .39 2.23 4.44 4.44 0 0 0 1 1.51 5.38 5.38 0 0 0 1.46 1 14.53 14.53 0 0 0 1.66.64q.84.27 1.66.5a7.75 7.75 0 0 1 1.46.56 3.12 3.12 0 0 1 1 .81 1.92 1.92 0 0 1 .39 1.25 2.6 2.6 0 0 1-.86 2.1 3.63 3.63 0 0 1-2.42.73 5 5 0 0 1-1.75-.27 7.22 7.22 0 0 1-1.27-.61q-.54-.33-.93-.61a1.31 1.31 0 0 0-.73-.27.89.89 0 0 0-.47.13 1.35 1.35 0 0 0-.36.31L.51 39.82a7.71 7.71 0 0 0 1.3 1 9.14 9.14 0 0 0 1.56.8 9.89 9.89 0 0 0 1.75.52 9.49 9.49 0 0 0 1.88.23 8 8 0 0 0 2.9-.49 6.29 6.29 0 0 0 2.1-1.34 5.67 5.67 0 0 0 1.33-2 6.58 6.58 0 0 0 .46-2.46 4.88 4.88 0 0 0-.39-2 4.37 4.37 0 0 0-1.02-1.47zm16.93 1.78a6.19 6.19 0 0 1-.31 2 4.25 4.25 0 0 1-.88 1.53 4 4 0 0 1-1.41 1 5.35 5.35 0 0 1-3.8 0 3.86 3.86 0 0 1-1.41-1 4.38 4.38 0 0 1-.88-1.53 6.19 6.19 0 0 1-.31-2v-11.6h-3.65v11.6a8.82 8.82 0 0 0 .56 3.19 7.25 7.25 0 0 0 1.62 2.53 7.35 7.35 0 0 0 2.56 1.66 9.21 9.21 0 0 0 3.4.6 9.21 9.21 0 0 0 3.4-.6 7.43 7.43 0 0 0 2.57-1.66 7.2 7.2 0 0 0 1.63-2.53 8.82 8.82 0 0 0 .6-3.19v-11.6h-3.69z"/></svg>