<svg xmlns="http://www.w3.org/2000/svg" viewBox="0 0 194.77 133"><defs><style>.cls-1{fill:none}.cls-2{fill:#ee5a2f}.cls-3{fill:#f37326}.cls-4{fill:#f7991e}.cls-5{fill:#f37427}.cls-6{fill:#f69220}.cls-7{fill:#f8931d}.cls-8{fill:#01b7d4}.cls-9{fill:#00a8cb}.cls-10{fill:#38c5ed}.cls-11{fill:#008a9f}.cls-12{fill:#a20994}.cls-13{fill:#771f80}.cls-14{fill:#e26ec2}.cls-15{fill:#0181b5}.cls-16{fill:#039bb1}.cls-17{fill:#c2349b}.cls-18{fill:#f37029}.cls-19{fill:#db3bbf}.cls-20{fill:#fff}.cls-21{fill:#f7be2a}</style></defs><title>Asset 3</title><g id="Layer_2" data-name="Layer 2"><g id="Layer_1-2" data-name="Layer 1"><path class="cls-1" d="M51.86 85.94L45.7 87.9l6.16-1.96zM106.93 55.49a10.87 10.87 0 0 0-2.76.36c-4.81 1.26-7.88 5.76-7.88 11 0 6.07 4.39 11.37 10.76 11.37a10.23 10.23 0 0 0 8.15-3.83 12 12 0 0 0 2.56-7.54c-.01-6.07-4.4-11.36-10.83-11.36zM12.44 24v7.22h8.4c2.92 0 4.74-1 5.12-2.91a3.94 3.94 0 0 0 .08-.78 3 3 0 0 0-1.62-2.74 7.44 7.44 0 0 0-3.7-.79zM101.66 20.37a11 11 0 0 0-2.86-7.48 9.69 9.69 0 0 0-7.21-3.1c-5.93 0-9.91 4.81-9.91 10.58S85.76 31 91.69 31a9.84 9.84 0 0 0 4.62-1.11 10.47 10.47 0 0 0 5.35-9.52zM12.44 16.4h6.83a11.31 11.31 0 0 0 1.45-.1c2.38-.3 3.7-1.41 3.7-3.43s-1.68-3.36-4.93-3.36h-7.05z"/><path class="cls-2" d="M1.86.78v.43l.57-.43h-.57z"/><path class="cls-3" d="M1.86 35.48L5.63 40h16.43a27.86 27.86 0 0 0 3.4-.2L1.86 25.28z"/><path class="cls-4" d="M20.83 31.23h-8.4V24h8.28a7.44 7.44 0 0 1 3.7.79l-3.7-8.5a11.31 11.31 0 0 1-1.45.1h-6.82V9.52h5.32L13.95.78H2.43l-.57.42v24.08l23.61 14.48a18.68 18.68 0 0 0 4.93-1.26L26 28.32c-.43 1.9-2.25 2.91-5.17 2.91z"/><path class="cls-5" d="M17.75 9.52h1.73c3.25 0 4.93 1.23 4.93 3.36s-1.32 3.12-3.7 3.42l3.7 8.5A3 3 0 0 1 26 27.54a3.94 3.94 0 0 1-.08.78l4.48 10.19c4.18-1.75 6.5-5 6.5-9.34 0-5.43-3-8.12-7.78-9.68 3.47-1.51 6-4.2 6-8.73a8.67 8.67 0 0 0-2.52-6.44C30.35 2 26.88.78 22 .78h-8z"/><path class="cls-6" d="M1.86 39.96h3.77l-3.77-4.48v4.48z"/><path class="cls-5" d="M40.76 27.99L51.62 5.23V.78H40.76v27.21z"/><path class="cls-7" d="M40.76 39.96h18.06l-.62-9.51h-6.58V5.23L40.76 27.99v11.97z"/><path class="cls-8" d="M70.59 39.96v-9.51H58.2l.62 9.51h11.77zM94.63 40.52h.18v-.39z"/><path class="cls-9" d="M96.31 29.84A9.84 9.84 0 0 1 91.69 31c-5.93 0-10-4.93-10-10.58s4-10.58 9.91-10.58a9.69 9.69 0 0 1 7.21 3.1l1.63-11.15A22.29 22.29 0 0 0 91.69 0c-9.64 0-17.34 5.81-20.07 13.86L94.8 40.11z"/><path class="cls-8" d="M86.58 40.19l8.23-.08-23.19-26.25a20.23 20.23 0 0 0 15 26.33z"/><path class="cls-10" d="M86.58 40.19a21.95 21.95 0 0 0 8.06.34l.17-.41z"/><path class="cls-9" d="M94.81 40.5h.2l-.21-.36z"/><path class="cls-10" d="M95 40.47a21.65 21.65 0 0 0 6.41-2l-6.61 1.64z"/><path class="cls-11" d="M101.66 20.37a10.47 10.47 0 0 1-5.35 9.46L94.8 40.11l6.62-1.63a20.2 20.2 0 0 0-1-36.74l-1.63 11.15a11 11 0 0 1 2.87 7.48z"/><path class="cls-12" d="M145.09 14.44L153 8.28C149.57 3.47 144.59 0 136.58 0a22.57 22.57 0 0 0-3.29.26l6.23 10.1a11.47 11.47 0 0 1 5.57 4.08zM153.37 31.82l-1.09-.77.81 1.31.28-.54z"/><path class="cls-13" d="M153.2 32.29l.29-.38-.11-.08-.28.54z"/><path class="cls-8" d="M117.9 11.51l.29.5 10.91-10.7a19.76 19.76 0 0 0-11.2 10.2z"/><path class="cls-12" d="M153.13 32.38l.07-.09-.1.07z"/><path class="cls-14" d="M153.1 32.41z"/><path class="cls-15" d="M136.47 9.91a10.25 10.25 0 0 1 3.06.46L133.29.26c-.36.05-.72.09-1.07.16l.51 10.29a8.9 8.9 0 0 1 3.74-.8zM136.13 40.75c.76 0 1.48 0 2.19-.09l14.77-8.29-.81-1.37-7-5c-2.35 2.85-4.76 4.76-8.84 4.76a9.11 9.11 0 0 1-2.76-.42l.51 10.24c.66.13 1.3.17 1.94.17z"/><path class="cls-10" d="M133.09 40.51c.38.05.75.12 1.14.15l-.51-10.24c-4-1.26-6.59-5.21-6.59-10 0-4.38 2.19-8.09 5.61-9.66L132.22.42a21 21 0 0 0-3.12.89L118.19 12z"/><path class="cls-11" d="M117.9 11.51a20.53 20.53 0 0 0-1.88 7l2.17-6.51z"/><path class="cls-16" d="M116 18.52c-.05.61-.09 1.23-.09 1.85a19.86 19.86 0 0 0 17.16 20.13L118.19 12z"/><path class="cls-8" d="M138.32 40.65a19.37 19.37 0 0 0 14.78-8.24z"/><path class="cls-12" d="M167.87.78h-10.86v24.04l10.86-20.9V.78z"/><path class="cls-13" d="M190.55 4.97L187.9.78h-6.54l-13.49 15.9V3.92l-10.86 20.9v4.72l32.5-23.4 1.04-1.17z"/><path class="cls-12" d="M167.87 39.96V29.83l3.97-4.42 9.85 14.55h13.05L179.4 17.63l10.11-11.49-32.5 23.4v4.93l10.24 5.49h.62z"/><path class="cls-17" d="M194.23.78h-6.33l2.65 4.19 3.68-4.19z"/><path class="cls-14" d="M157.01 34.47v5.49h10.24l-10.24-5.49z"/><path class="cls-10" d="M21.73 73c2.5.87 3.22 1.72 3.22 3 0 1.92-1.68 3-4.81 3a20.15 20.15 0 0 1-5.73-.84l-7.07 5 25.07 1.63a12.35 12.35 0 0 0 4.33-9.77c0-.36 0-.7-.05-1l-7.61-6.06z"/><path class="cls-16" d="M36.7 73.87c-.33-4.62-2.85-7.49-7-9.48l-.56 3.42zM32.28 48.44l-1.49 9 4.81-6.8a24.56 24.56 0 0 0-3.32-2.2zM4.7 84.94a31.19 31.19 0 0 0 15 3.69c5.32 0 9.71-1.4 12.69-3.94L7.35 83.06z"/><path class="cls-2" d="M.77 80.73l-.77.92a25.29 25.29 0 0 0 4.7 3.29l2.65-1.88zM14.42 78.1a23.29 23.29 0 0 1-7.92-4.21l-3 3.59 3.86 5.58zM2 58.51c0 8.82 6.9 11.35 15.86 13.39a39.07 39.07 0 0 1 3.87 1.1l7.35-5.16z"/><path class="cls-3" d="M18.28 45.08a21.49 21.49 0 0 0-7.28 1.2l7.15 8.49a21.18 21.18 0 0 1 11.67 4.14l1-1.44 1.49-9a27.84 27.84 0 0 0-14.03-3.39zM29.65 64.39a31.43 31.43 0 0 0-5-1.81l4.41 5.24z"/><path class="cls-6" d="M2 58.51l27.1 9.3-4.41-5.24Q23 62.09 21 61.68c-5.83-1.32-7.28-2.17-7.28-4.09 0-1.62 1.38-2.83 4.21-2.83h.12L11 46.28c-5.71 2.05-9 6.56-9 12.23z"/><path class="cls-18" d="M3.49 77.48L.77 80.73l6.58 2.33-3.86-5.58z"/><path class="cls-10" d="M41.2 77.45v7.8l10.66.69-10.66-8.49z"/><path class="cls-16" d="M41.2 62.49v14.96l10.66 8.49L41.2 62.49zM67.84 87.9H79.5V75.06l-11.66 4.59v8.25zM52.86 86.24v-.69l-1 .39 1 .3z"/><path class="cls-10" d="M52.86 79.4v-7.5h1.16l1.59-10.34h-2.75V45.8H41.2v16.69l10.66 23.45 1-6.54z"/><path class="cls-16" d="M41.2 85.25v2.65h4.5l6.16-1.96-10.66-.69z"/><path class="cls-8" d="M45.7 87.9h5.56l.6-1.96-6.16 1.96z"/><path class="cls-9" d="M67.84 71.9v7.75l11.66-4.59v-2.41L67.84 54.46v7.1H55.61L54.02 71.9h13.82zM52.86 85.55V79.4l-1 6.54 1-.39z"/><path class="cls-10" d="M79.5 45.8H67.84v8.66L79.5 72.65V45.8z"/><path class="cls-9" d="M51.86 85.94l.64 1.96h.36v-1.66l-1-.3zM51.86 85.94z"/><path class="cls-10" d="M51.86 85.94zM51.26 87.9h1.24l-.64-1.96-.6 1.96zM51.86 85.94l-.6 1.96.6-1.96z"/><path class="cls-8" d="M95.05 48.14a22 22 0 0 0-5.31 4.36l-5.4 13.23v1.12a21.47 21.47 0 0 0 11.9 19.42z"/><path class="cls-10" d="M84.34 65.73l5.4-13.23a21.46 21.46 0 0 0-5.4 13.23zM105.27 88.67c.55 0 1.09.08 1.65.08a22.75 22.75 0 0 0 18.39-8.86L116 75.67z"/><path class="cls-9" d="M105.27 88.67l10.69-13-.76-1.28a10.23 10.23 0 0 1-8.2 3.83c-6.37 0-10.76-5.29-10.76-11.37 0-5.25 3.07-9.75 7.88-11l-5.58-9.38a22.64 22.64 0 0 0-3.53 1.67l1.19 38.13a23.46 23.46 0 0 0 9.07 2.4z"/><path class="cls-8" d="M129.44 69.95a22.09 22.09 0 0 0 .22-3.09 21.81 21.81 0 0 0-2.76-10.7L116 75.67z"/><path class="cls-9" d="M125.32 79.89a21.42 21.42 0 0 0 4.12-9.94L116 75.67z"/><path class="cls-10" d="M106.93 55.49c6.44 0 10.83 5.29 10.83 11.37a12 12 0 0 1-2.56 7.54l.76 1.28 10.94-19.53A22.3 22.3 0 0 0 107 45a24.1 24.1 0 0 0-8.46 1.51l5.58 9.38a10.87 10.87 0 0 1 2.81-.4z"/><path class="cls-12" d="M194.67 45.8h-12.09l-.62 2.07 10.21 5.48 2.5-7.55z"/><path class="cls-14" d="M171.97 60.28l-4.84-14.6h-10.05l-.33 1.01 3.57 13.98 11.65-.39zM192.17 53.35l-10.21-5.48-3.67 12.2 11.78-.4 2.1-6.32z"/><path class="cls-8" d="M170.44 88.2h10.16l1.11-3.34-11.51 2.67.24.67z"/><path class="cls-19" d="M181.71 84.86l5.06-15.25-18.69 11.86 2.12 6.06 11.51-2.67z"/><path class="cls-13" d="M190.07 59.67l-11.78.4-3.04 10.09-3.28-9.88-11.65.39-7.54 27.53h.76l8.42-24.23 6.12 17.5 18.69-11.86 3.3-9.94z"/><path class="cls-10" d="M143.37 88.2h.42l-.49-.22.07.22zM153.63 56.09l-4.66 14.07-6.55-21.74-3.83-2.62h-4.36l-.46 13.46 5.42 16.36 9.8 12.58h3.79l7.54-27.53-6.69-4.58z"/><path class="cls-8" d="M132.7 45.8l-2.14 3.82 3.21 9.64.46-13.46h-1.53z"/><path class="cls-9" d="M143.3 87.98l.49.22h5.2l-9.8-12.58 4.11 12.36z"/><path class="cls-10" d="M129.3 45.8l1.26 3.82 2.14-3.82h-3.4z"/><path class="cls-8" d="M156.75 46.69l-3.12 9.4 6.69 4.58-3.57-13.98zM141.63 45.8h-3.04l3.83 2.62-.79-2.62z"/><path class="cls-20" d="M90.74 125.23l-5.08 2.21v-.22a15.61 15.61 0 0 1-3.09.44c-4.78 0-8.57-2.55-8.61-5.52V121c1.57 2.28 4.76 3.81 8.61 3.75a13.09 13.09 0 0 0 3.75-.44l.44-1.1a14.58 14.58 0 0 1-4.2.66c-4.78 0-8.57-2.49-8.61-5.52v-.88c1.57 2.11 4.76 3.64 8.61 3.53a10.68 10.68 0 0 0 4.86-.88l.22-1.1a10.4 10.4 0 0 1-5.08 1.1c-4.78.06-8.57-2.44-8.61-5.52v-.88c1.57 2.16 4.76 3.69 8.61 3.75a13.79 13.79 0 0 0 6-1.55l.22-1.33a11.49 11.49 0 0 1-6.18 2c-4.81-.08-8.6-2.59-8.6-5.71 0-3 3.84-5.48 8.61-5.52a10.22 10.22 0 0 1 7.02 2.64l.15.26h1.12l-.16-.26c-1.57-2.13-4.7-3.53-8.17-3.53-5.29 0-9.5 2.91-9.5 6.4v11.48c.19 3.41 4.3 6.18 9.5 6.18a10.83 10.83 0 0 0 8.17-3.3z"/><path class="cls-21" d="M88.67 133l1.78-7.58-5.13 2.23 3.12-13.15h-6L84 108h19.17l-1.56 6.46h-6.25L94 118.07l6.91-2.9zm3.12-9.14l-.89 4.46 7.36-11.15-6 2.67 2.67-6.24h6l1.11-4.68H84.66l-1.11 4.68h6l-2.9 12.48z"/><path class="cls-20" d="M115.89 112.36a2.08 2.08 0 0 1-.65 1.67 2.65 2.65 0 0 1-1.84.6 2.55 2.55 0 0 1-1.93-.77 2.76 2.76 0 0 1-.74-2v-1.32a2.81 2.81 0 0 1 .72-2 2.45 2.45 0 0 1 1.88-.77 2.81 2.81 0 0 1 1.9.59 2 2 0 0 1 .67 1.67h-1.3a1.31 1.31 0 0 0-.31-1 1.29 1.29 0 0 0-1-.31 1.08 1.08 0 0 0-.93.48 2.13 2.13 0 0 0-.34 1.25v1.33a2.07 2.07 0 0 0 .35 1.25 1.15 1.15 0 0 0 1 .48 1.17 1.17 0 0 0 .89-.31 1.36 1.36 0 0 0 .29-1zm7.33-.53a2.79 2.79 0 0 1-.77 2 2.92 2.92 0 0 1-4 0 2.81 2.81 0 0 1-.77-2v-1.2a2.81 2.81 0 0 1 .77-2 2.63 2.63 0 0 1 2-.8 2.68 2.68 0 0 1 2 .8 2.79 2.79 0 0 1 .78 2zm-1.33-1.21a2 2 0 0 0-.39-1.28 1.29 1.29 0 0 0-1.07-.5 1.25 1.25 0 0 0-1.05.5 2.05 2.05 0 0 0-.38 1.28v1.21a2.07 2.07 0 0 0 .38 1.29 1.26 1.26 0 0 0 1.06.5 1.27 1.27 0 0 0 1.07-.5 2.05 2.05 0 0 0 .38-1.29zm4.79 3.94h-1.33v-6.66h1.33zm7.68 0H133l-2.68-4.49v4.48H129v-6.66h1.33l2.68 4.48v-4.48h1.33zm6.71-5.63h-1.9v5.63h-1.33v-5.63H136v-1h5.11zm5.52 2.7h-2.47v1.9h2.93v1h-4.27v-6.66h4.26v1h-2.93v1.67h2.47zm3.72 1.9h3v1H149v-6.66h1.33zm8.65-1.9h-2.46v1.9h2.93v1h-4.27v-6.66h4.26v1h-2.92v1.67h2.5zm7.49 2a2.53 2.53 0 0 1-.93.71 3.65 3.65 0 0 1-1.59.3 2.69 2.69 0 0 1-2-.76 2.65 2.65 0 0 1-.77-2v-1.39a2.69 2.69 0 0 1 .75-2 2.56 2.56 0 0 1 1.92-.76 2.72 2.72 0 0 1 1.87.58 1.9 1.9 0 0 1 .63 1.54h-1.26a1.09 1.09 0 0 0-.31-.83 1.24 1.24 0 0 0-.89-.29 1.2 1.2 0 0 0-1 .47 1.9 1.9 0 0 0-.37 1.22v1.4a1.9 1.9 0 0 0 .38 1.23 1.25 1.25 0 0 0 1 .48 2.37 2.37 0 0 0 .75-.1 1.15 1.15 0 0 0 .43-.24V112h-1.28v-.92h2.62zm3.45-1.75v2.66h-1.33v-6.66h2.3a2.76 2.76 0 0 1 1.78.52 1.76 1.76 0 0 1 .64 1.45 1.46 1.46 0 0 1-.27.88 1.89 1.89 0 0 1-.79.6 1.43 1.43 0 0 1 .85.58 1.84 1.84 0 0 1 .26 1v.49a2.42 2.42 0 0 0 .08.58.8.8 0 0 0 .26.45v.1h-1.38a.74.74 0 0 1-.24-.48 4.26 4.26 0 0 1-.05-.65v-.4a1.06 1.06 0 0 0-.27-.77 1 1 0 0 0-.77-.28zm0-1h.95a1.25 1.25 0 0 0 .84-.24.88.88 0 0 0 .27-.7 1 1 0 0 0-.28-.73 1.12 1.12 0 0 0-.81-.27h-1zm9.08 2.25h-2.16l-.45 1.44H175l2.24-6.66h1.37l2.24 6.66h-1.39zm-1.83-1h1.5l-.74-2.35zm6.63.07v2.41h-1.33v-6.66H185a2.62 2.62 0 0 1 1.81.59 2.13 2.13 0 0 1 0 3.08 2.63 2.63 0 0 1-1.81.58zm0-1H185a1.11 1.11 0 0 0 .85-.3 1.08 1.08 0 0 0 .29-.77 1.13 1.13 0 0 0-.29-.79 1.09 1.09 0 0 0-.85-.31h-1.21zm11 3.44h-1.33v-2.84h-2.71v2.77h-1.33v-6.66h1.33v2.86h2.71v-2.86h1.33zM1.37 112.22v2.34H0v-6.65h2.59a3 3 0 0 1 1.32.27 2 2 0 0 1 .87.78 2.17 2.17 0 0 1 .31 1.15 1.91 1.91 0 0 1-.67 1.54 2.79 2.79 0 0 1-1.85.56zm0-1.11h1.22a1.2 1.2 0 0 0 .83-.26.93.93 0 0 0 .29-.73 1.09 1.09 0 0 0-.29-.79 1.08 1.08 0 0 0-.79-.31H1.37zM12.24 111.39a4 4 0 0 1-.35 1.72 2.61 2.61 0 0 1-1 1.14 2.75 2.75 0 0 1-1.48.4 2.76 2.76 0 0 1-1.47-.4 2.64 2.64 0 0 1-1-1.13 3.89 3.89 0 0 1-.36-1.7v-.33a4 4 0 0 1 .35-1.73 2.63 2.63 0 0 1 1-1.15 2.75 2.75 0 0 1 1.48-.4 2.75 2.75 0 0 1 1.48.4 2.64 2.64 0 0 1 1 1.15 4 4 0 0 1 .35 1.72zm-1.39-.3a2.79 2.79 0 0 0-.37-1.59 1.22 1.22 0 0 0-1.07-.5 1.22 1.22 0 0 0-1.06.54 2.76 2.76 0 0 0-.35 1.52v.32a2.83 2.83 0 0 0 .34 1.62 1.22 1.22 0 0 0 1.08.56 1.21 1.21 0 0 0 1.06-.54 2.82 2.82 0 0 0 .37-1.58zM19.16 112.64l.89-4.73h1.36l-1.47 6.65h-1.38l-1.08-4.45-1.08 4.45H15l-1.47-6.65h1.36l.9 4.72 1.1-4.72h1.16zM26.9 111.68h-2.63v1.78h3.09v1.1H22.9v-6.65h4.45V109h-3.08v1.58h2.63zM31.37 112.13h-1.09v2.43h-1.37v-6.65h2.47a2.79 2.79 0 0 1 1.82.52 1.81 1.81 0 0 1 .64 1.48 2 2 0 0 1-.29 1.13 2 2 0 0 1-.89.72l1.44 2.72v.06h-1.48zM30.28 111h1.1a1.13 1.13 0 0 0 .8-.26.94.94 0 0 0 .28-.72 1 1 0 0 0-.27-.74 1.11 1.11 0 0 0-.82-.27h-1.1zM39.63 111.68H37v1.78h3.09v1.1h-4.46v-6.65h4.45V109H37v1.58h2.63zM41.63 114.56v-6.65h2a3.1 3.1 0 0 1 1.57.4 2.75 2.75 0 0 1 1.08 1.12 3.46 3.46 0 0 1 .39 1.65v.31a3.47 3.47 0 0 1-.38 1.65 2.73 2.73 0 0 1-1.08 1.12 3.12 3.12 0 0 1-1.57.4zM43 109v4.44h.66a1.49 1.49 0 0 0 1.23-.52 2.37 2.37 0 0 0 .43-1.5v-.35a2.41 2.41 0 0 0-.42-1.54 1.48 1.48 0 0 0-1.23-.52zM51.53 114.56v-6.65h2.33a3.06 3.06 0 0 1 1.84.46 1.58 1.58 0 0 1 .63 1.36 1.5 1.5 0 0 1-.25.86 1.45 1.45 0 0 1-.7.55 1.4 1.4 0 0 1 .81.52 1.52 1.52 0 0 1 .29.95 1.75 1.75 0 0 1-.61 1.45 2.76 2.76 0 0 1-1.74.5zm1.37-3.86h1q1 0 1-.83a.76.76 0 0 0-.26-.65 1.38 1.38 0 0 0-.83-.2h-1zm0 1v1.79h1.17a1.13 1.13 0 0 0 .76-.23.79.79 0 0 0 .27-.64.83.83 0 0 0-.94-.93zM60.29 110.91l1.38-3h1.5L61 112.15v2.41h-1.41v-2.41l-2.18-4.24h1.5z"/></g></g></svg>