<svg width="19" height="21" xmlns="http://www.w3.org/2000/svg" xmlns:xlink="http://www.w3.org/1999/xlink"><use xlink:href="#path0_fill" fill="#C1C1C1"/><defs><path id="path0_fill" d="M8.751 9.366a.742.742 0 0 0-.806-1.208.738.738 0 0 0-.24.16l-3.916 3.92a3.465 3.465 0 0 0-1.028 2.475c0 .94.36 1.807 1.028 2.475 1.371 1.373 3.59 1.373 4.944 0l8.841-8.851A4.867 4.867 0 0 0 19 4.886a4.846 4.846 0 0 0-1.426-3.45A4.859 4.859 0 0 0 14.12 0a4.88 4.88 0 0 0-3.455 1.436L1.84 10.269A6.25 6.25 0 0 0 0 14.713c0 1.68.65 3.27 1.84 4.444A6.206 6.206 0 0 0 6.28 21a6.19 6.19 0 0 0 4.438-1.843l3.915-3.92a.743.743 0 0 0-.523-1.264.741.741 0 0 0-.523.216l-3.915 3.92a4.764 4.764 0 0 1-3.392 1.41 4.783 4.783 0 0 1-3.393-1.41 4.798 4.798 0 0 1 0-6.792l8.823-8.834a3.348 3.348 0 0 1 2.4-.993 3.396 3.396 0 0 1 3.137 2.096c.17.413.257.854.254 1.3 0 .9-.356 1.763-.992 2.403l-8.84 8.851c-.775.777-2.057.777-2.85 0a2.016 2.016 0 0 1-.595-1.427 2.007 2.007 0 0 1 .595-1.426l3.933-3.92v-.001z"/></defs></svg>