<svg xmlns="http://www.w3.org/2000/svg" width="17" height="36" viewBox="0 0 17 36">
    <path fill="#868686" fill-rule="nonzero" d="M8.313.324h-.2A7.846 7.846 0 0 0 .296 8.276l.212 20.3c.017 1.532.608 3.752 1.866 5.01a6.282 6.282 0 0 0 4.398 1.858 6.032 6.032 0 0 0 4.367-1.77v-.001a6.033 6.033 0 0 0 1.77-4.367l-.181-17.523a4.476 4.476 0 0 0-1.42-3.206 4.428 4.428 0 0 0-2.987-1.2A4.247 4.247 0 0 0 5.25 8.623a4.235 4.235 0 0 0-1.245 3.07l.139 13.42c.001.336.13.675.389.933.512.513 1.335.522 1.837.02.251-.252.374-.582.37-.914h.002L6.6 11.718c-.004-.48.205-.926.537-1.247.318-.308.75-.5 1.21-.496.447.004.876.177 1.205.483.366.342.57.804.576 1.299l.181 17.522a3.51 3.51 0 0 1-1.028 2.537v.001a3.508 3.508 0 0 1-2.538 1.028 3.646 3.646 0 0 1-2.553-1.077c-.577-.577-1.073-2.026-1.086-3.165l-.211-20.3A5.308 5.308 0 0 1 8.2 2.922l.195.002c2.944.096 5.342 2.535 5.373 5.493l.174 16.8c.002.335.131.672.39.93.512.513 1.334.522 1.837.02a1.27 1.27 0 0 0 .37-.914h.002l-.174-16.81C16.322 4.034 12.715.407 8.313.325z"/>
</svg>
